<?xml version="1.0" encoding="utf-8"?>
<svg width="512" height="512" viewBox="0 0 512 512" xmlns="http://www.w3.org/2000/svg"
     xmlns:xlink="http://www.w3.org/1999/xlink">
    <defs>

    <svg xmlns="http://www.w3.org/2000/svg" width="2500" height="2500" viewBox="0 0 192.756 192.756" id="svg-1"><g fill-rule="evenodd" clip-rule="evenodd"><path fill="#fff" d="M0 0h192.756v192.756H0V0z"/><path fill="#33348e" d="M96.396 16.925l-78.85 52.85 32.819 21.311L89.577 64.66 74.023 54.443l21.305-14.274 46.231 30.679-75.845 50.918 16.405 10.865 94.379-62.848-.213-.213-79.889-52.645zM175.027 16.947l-32.808 21.731 16.404 11.078 16.404-11.078V16.947zM17.005 175.832l32.809-21.73-16.404-11.079-16.405 11.079v21.73z"/><path fill="#33348e" d="M96.36 175.787l78.849-52.851-32.818-21.311-39.211 26.426 15.552 10.217-21.304 14.275-46.231-30.68 75.844-50.917-16.404-10.866-94.38 62.848.213.215 79.89 52.644z"/></g></svg>
    <svg viewBox="0 0 128 128" height="100%" width="100%" pointer-events="none" display="block" id="svg-10" >
        <path fill="#FFCC80" d="M41.6 123.8s0 .1-.1.1l.3-.4c-.1.2-.1.2-.2.3z"/>
        <path fill="#8C9EFF" d="M0 0h128v128H0z"/>
        <path fill="#C2C2C2"
              d="M34.8 79.5c-2.5-3.4-5.9-6.4-6.9-10.3v-.1l-.6-.5c-.3-1.2.6-2 .5-3l-2.4-1h-6.9s0 17 17.4 17.3c-.9-.9-.7-1.8-1.1-2.4z"/>
        <path fill="#CFD8DC"
              d="M21.9 64.2l-.1-.3c0-.1 0-.2-.1-.4v-1l.1-.3c.1-.1.1-.2.1-.3.1-.1.1-.2.1-.2.2-.4.1-.8-.2-1.1-.4-.4-1-.4-1.3 0l-.2.2-.2.2c-.1.1-.2.2-.3.4l-.3.6-.3.6c-.1.2-.2.4-.2.7 0 .2-.1.5-.1.8v.5h3c.2-.2.1-.3 0-.4z"/>
        <path fill="#eee"
              d="M116.5 65.2c.1.1.2.1.2.2 0-.1-.1-.2-.2-.2zm8.2 6.1l.6.3c-.3-.1-.4-.2-.6-.3zm1.7 1l.6.3c-.2 0-.4-.1-.6-.3zm-3.4-2.1l.5.3c-.2 0-.4-.2-.5-.3zm-8-6.5zm-.1 64.1c-12-17.2-7.6-52-3.1-67.6v-.1c-3.5-4.2-7.8-11.7-10.2-18.7-1.7-5-4-8.8-6.4-11.8l-1.6-2-10.7 11.8c-1.5 2.1-3.3 1.8-4.1-.6l-7.1-17.3c-.3-.9-.3-1.9 0-2.7.3-1.1-.1-2.1.7-3l-2-.1c-1.3 0-2.5.1-3.7.3-1.7-.3-3.4-.5-5.1-.5-11.9 0-21.9 8.1-24.8 19.2-.5 1.8-.7 3.7-.8 5.6-1.2 3.6-4.2 7.7-11.5 8.4 1.3.4 2.2 1.9 2 3.6l-.5 2.8c-.3 2-1.2 2.4-2.2.9l1.6 8.6.2.9c.1 1.1.3 2.2.6 3.4 1 4 3.2 8.2 7.8 10.9.3.6 1 1.3 2 2.1 8.2 6.7 36 20.7 27.8 46.1h51.3c0-.1-.1-.1-.2-.2zM34.5 59.3c.5 0 1 .4 1 1 0 .5-.4 1-1 1-.5 0-1-.4-1-1s.4-1 1-1zm7.4 3.9c.5 0 1 .4 1 1 0 .5-.4 1-1 1-.5 0-1-.4-1-1 0-.5.5-1 1-1zm-1-8.5c-.5 0-1-.4-1-1 0-.5.4-1 1-1 .5 0 1 .4 1 1s-.5 1-1 1zm3.9-10.9c-.9 0-1.6-.7-1.6-1.6 0-.9.7-1.6 1.6-1.6.9 0 1.6.7 1.6 1.6 0 .9-.7 1.6-1.6 1.6zm73.3 22.7c.1.1.2.2.4.3-.2-.1-.3-.2-.4-.3zm3.2 2.6l.5.3-.5-.3zm-1.6-1.3l.4.3c-.1 0-.3-.1-.4-.3z"/>
        <path fill="#C2C2C2"
              d="M114.9 127.8l.2.2H128V73.2l-1-.6-.6-.3-1.2-.7-.6-.3-1.2-.7-.5-.3-1.2-.8-.5-.3-1.2-.9-.4-.3-1.2-1c-.1-.1-.2-.2-.4-.3l-1.3-1.2c-.1-.1-.2-.1-.2-.2l-1.5-1.5c-1.5-1.6-3-3.3-4.4-5.1-4.6 15.4-13 52.7 4.3 69.1z"/>
        <path fill="#646464"
              d="M26 55.1l.4-2.8c.2-1.8-.6-3.2-2-3.6-.3-.1-.7-.2-1.1-.1-2 .1-2.7 1.9-1.6 3.8l1.8 3.3c.1.2.2.3.3.4 1 1.3 1.9 1 2.2-1z"/>
        <circle fill="#444" cx="44.8" cy="42.2" r="2"/>
        <circle fill="#CFD8DC" cx="34.5" cy="60.3" r="1"/>
        <circle fill="#CFD8DC" cx="40.9" cy="53.7" r="1"/>
        <circle fill="#CFD8DC" cx="41.9" cy="64.2" r="1"/>
        <path fill="#646464"
              d="M70.7 18.8c-.3.8-.3 1.8 0 2.7l8.1 19.3c.8 2.5 2.6 2.7 4.1.6l12.3-11.8 1.4-1.3c.3-.4.5-.9.6-1.3.4-1.2.3-2.4-.1-3.6-1.1-4.3-5.6-8.9-11.2-10.3-5.6-1.4-10.9-.2-13.6 2.7-.8.8-1.3 1.8-1.6 3z"/>
    </svg>
    <svg viewBox="0 0 128 128" height="100%" width="100%" pointer-events="none" display="block" id="svg-11" >
        <path fill="#FFCC80" d="M41.6 123.8s0 .1-.1.1l.3-.4c-.1.2-.1.2-.2.3z"/>
        <path fill="#FFFF8D" d="M0 0h128v128H0z"/>
        <path fill="#F4B400"
              d="M110.3 91.4l-.5-.5c.1.2.3.4.5.5zm-4.4-4.5l.4.5c-.1-.2-.3-.4-.4-.5zm9.8 9.5c.2.2.4.4.7.6-.3-.2-.5-.4-.7-.6zM104.3 85c.2.2.3.4.5.5-.2-.1-.4-.3-.5-.5zm3.7 4.1zm16.9 14l.9.6c-.3-.3-.6-.4-.9-.6zm-28.5-29l.1.2c-.1 0-.1-.1-.1-.2zm15.2 18.6c.2.2.4.4.7.6l-.7-.6zm10 8.2l.9.6-.9-.6zm-18.8-17.7l.4.5c-.1-.1-.3-.3-.4-.5zm-1.4-1.7c.1.1.1.2.2.2-.1 0-.1-.1-.2-.2zm12.2 13l.7.6c-.2-.1-.5-.4-.7-.6zm-15-16.8c.1.1.1.2.2.2l-.2-.2zm-1.2-1.8l.2.3c0-.1-.1-.2-.2-.3zm28.4 27.7l-.9-.6-2.4-1.5-.9-.6c-1-.7-2.1-1.4-3.1-2.2l-2.2-1.8c-.2-.2-.4-.4-.7-.6-.5-.4-1-.8-1.4-1.2l-.7-.6-1.3-1.2-.7-.6c-.5-.4-.9-.9-1.3-1.3l-.5-.5-1.8-1.8c-.6-.6-1.1-1.2-1.6-1.8l-.4-.5-1.2-1.3c-.2-.2-.3-.4-.5-.5l-1.1-1.3-.4-.5-1.2-1.5c-.1-.1-.1-.2-.2-.2-.9-1.2-1.8-2.4-2.6-3.6-.1-.1-.1-.2-.2-.2l-1-1.5-.2-.3c-.3-.5-.6-1-1-1.5l-.1-.2c-1.1-1.8-2-3.5-2.9-5.2-3.1-6-4.8-11.4-5.7-15.9-.2-.9-.3-1.7-.4-2.6L85 13l-8 10.2c-3.7-2.6-8.2-4.2-13.1-4.2s-9.4 1.5-13.1 4.1L42.7 13l-1.8 29-7.7 71.8h.2c-.1 1-.2 2-.2 3 0 4 .8 7.7 2.1 11.2H128v-23.1c-.7-.4-1.5-.8-2.2-1.3zM55 38.4c-.9 0-1.6-.7-1.6-1.6 0-.9.7-1.6 1.6-1.6.9 0 1.6.7 1.6 1.6 0 .8-.7 1.6-1.6 1.6zm17.9 0c-.9 0-1.6-.7-1.6-1.6 0-.9.7-1.6 1.6-1.6.9 0 1.6.7 1.6 1.6 0 .8-.7 1.6-1.6 1.6z"/>
        <circle fill="#444" cx="72.9" cy="36.7" r="2"/>
        <circle fill="#444" cx="55" cy="36.7" r="2"/>
        <path fill="#444" d="M61.6 39.5c-.5 1-.1 1.7 1 1.7h4.6c1.1 0 1.6-.8 1-1.7l-2.3-4c-.5-1-1.4-1-2 0l-2.3 4z"/>
        <path fill="#FF5722"
              d="M92.5 102.7c8.3 11.3 23.6 14.4 35.5 7.8v-5.6l-2.2-1.3-.9-.6-2.4-1.5-.9-.6c-1-.7-2.1-1.4-3.1-2.2l-2.2-1.8c-.2-.2-.4-.4-.7-.6-.5-.4-1-.8-1.4-1.2l-.7-.6-1.3-1.2-.7-.6c-.5-.4-.9-.9-1.3-1.3l-.5-.5-1.8-1.8c-.6-.6-1.1-1.2-1.6-1.8l-.4-.5-1.2-1.3c-.2-.2-.3-.4-.5-.5l-1.1-1.3-.4-.5-1.2-1.5c-.1-.1-.1-.2-.2-.2-.9-1.2-1.8-2.4-2.6-3.6-.1-.1-.1-.2-.2-.2l-1-1.5-.2-.3c-.3-.5-.6-1-1-1.5l-.1-.2c-1.1-1.8-2-3.5-2.9-5.2-7.7 9.4-8.4 23.4-.8 33.7z"/>
    </svg>
    <svg viewBox="0 0 128 128" height="100%" width="100%" pointer-events="none" display="block" id="svg-12"  >
        <path fill="#B9F6CA" d="M0 0h128v128H0z"/>
        <path fill="#444"
              d="M50.4 75.7c-1.6-1.6-3.2-2.9-4.7-4-.9-.6-1-1.7-1.7-2.2-1.8-1-3.2-5.9-5.3-3.4l-.5.8-.4-.9c-1.3-1.2-1-.4-1.3-2.3-.5-4.2 1.2-7.2 5.1-7.8 1-.1 2-.1 2.9.2 9.5-1.8 13.7-7.4 15.2-10 4 5.7 14.3 11.4 38.3 7.8 2.8-4.7 4.5-10.2 4.5-16C102.4 20.8 88.6 7 71.6 7c-6.7 0-12.8 2.1-17.9 5.7L27.9 31C16.3 36.6 8.3 48.5 8.3 62.2c0 19.1 15.5 34.6 34.6 34.6 4.6 0 9-.9 13-2.5.2-8.4-1.4-14.5-5.5-18.6zm-5.9-21.6z"/>
        <path fill="#8D6E63"
              d="M73.7 122c6.1.5 13.4-.3 22-3.5-.1-.7-.3-1.4-.5-2.1-.3-1.3-3.8-21.4-4-28.1-.1-7.3.8-11.9 2-14.7h8.7l-2.5-10.1c-.2-2.4-.4-4.7-.7-6.6-.2-1.8-.3-2.3-.8-3.9-24 3.6-34.2-3.7-38.2-9.4-1.4 2.5-5.7 8.8-15.3 10.5-.9-.3-1.9-.3-2.9-.2-3.9.6-6.7 4.5-6.1 8.8.3 2 1.2 3.6 2.5 4.8.2.1 1.5.6 3.3 1.7.7.4 1.6.9 2.4 1.6 1.5 1.1 3.1 2.4 4.7 4 4 4.1 7.6 10.2 7.4 18.5-.1 4.9-1.6 10.6-5.1 17.2.1 0 7.3 10.2 23.1 11.5zM44.5 54.1z"/>
        <path fill="#FFCC80" d="M41.6 123.8s.1-.2.2-.3c-.1.2-.1.2-.2.3z"/>
        <circle fill="#444" cx="83.5" cy="63.1" r="2"/>
        <path fill="#0097A7"
              d="M73.7 122c-15.9-1.3-23-11.5-23-11.5-2.1 4-5.1 8.4-8.9 13.1l-.3.4c-.5.6-1.1 1.3-1.7 2-.5.6-1 1.3-1.6 2.1h59.7c-.7-3.2-1.5-6.4-2.1-9.5-8.7 3.1-16 3.9-22.1 3.4z"/>
    </svg>
    <svg viewBox="0 0 128 128" height="100%" width="100%" pointer-events="none" display="block" id="svg-13" >
        <path fill="#448AFF" d="M0 0h128v128H0z"/>
        <g fill="#00BFA5">
            <path d="M73 18.7c-4.8 0-9.7.8-14 2.3-.1.1-.2.2-.4.3l-7.3 4.6c-.6.4-1.4.4-2 .1-.3-.2-.6-.4-.8-.7l-.7-1.1c-.6-1-.3-2.2.6-2.8l7.3-4.6c.4-.2.8-.3 1.2-.3-5.5-3-23.7-10.7-33.7 10.7-11.8 25.4 11 50.2-14.4 62.6 0 0 26.2 13.7 40.9-24.8 3.7 3.2 8.8 5.8 16 7.4-.6-5.6.8-9.8-2.1-12.8-1.3-1.4-2.7-1.5-4-2.4-.7-.5-1.4-.9-2-1.3-1.5-.9-2.6-1.3-2.8-1.4-1.1-1-1.9-2.4-2.1-4.1-.5-3.6-2.2-6.9 1.1-7.4.8-.1 1.6-.1 2.4.2 8-1.5 11.6-6.7 12.8-8.9 3.4 4.8 11.7 9.8 31.9 6.8.3 1.1.6 1.2.8 2.4l.5-1.3c-.1-13-13.2-23.5-29.2-23.5zM56.1 43.2zm5.3 46.5s6 8.6 19.4 9.7c5.1.4 11.3-.3 18.6-2.9-.1-.6-.3-1.2-.4-1.7-.2-1.1-3.2-18-3.4-23.6-.2-6.2.6-10 1.6-12.4h7.3l-2.1-8.5c-.1-2-.4-3.9-.6-5.6 0-.3-.1-.7-.2-1-.2-1.1-.4-2.3-.8-3.4-20.2 3-28.5-2-31.9-6.8-1.2 2.1-4.8 7.4-12.8 8.9-.8-.2-1.6-.3-2.4-.2-3.3.5-5.6 3.8-5.1 7.4.2 1.7 1 3.1 2.1 4.1.2.1 1.3.5 2.8 1.4.6.4 1.3.8 2 1.3 1.3.9 2.6 2 4 3.4 2.9 3 5.6 7.2 6.1 12.8.5 4.5-.6 10.2-4.2 17.1zm27.5-41.2c.7 0 1.3.6 1.3 1.3s-.6 1.3-1.3 1.3-1.3-.6-1.3-1.3.6-1.3 1.3-1.3zm-32.8-5.3c.1-.1 0-.1 0 0zm-2.4 57.7l.2-.2-.2.2z"/>
            <circle cx="88.9" cy="49.8" r="2"/>
            <path d="M80.8 99.3c-13.3-1.1-19.4-9.7-19.4-9.7-1.8 3.4-4.3 7.1-7.5 11l-.3.3c-.4.5-.9 1.1-1.4 1.7-.7.9-1.6 2.1-2.8 3.7-2.3 3.2-5.4 7.8-8.8 13.5-1.4 2.4-2.9 5.1-4.4 8 0 0 0 .1-.1.1h71.3c-.6-1.6-1.3-3.2-1.7-4.8-2.2-8.6-4.6-17.9-6.5-26.8-7.2 2.8-13.3 3.5-18.4 3zM55.7 16.7l-7.3 4.6c-1 .6-1.3 1.9-.6 2.8l.7 1.1c.2.3.5.6.8.7.6.3 1.4.3 2-.1l7.3-4.6.4-.3c.7-.7.8-1.7.3-2.5l-.7-1.1c-.4-.6-1-.9-1.6-1-.5 0-1 .1-1.3.4z"/>
        </g>
        <path fill="#444"
              d="M73 18.7c-4.8 0-9.7.8-14 2.3-.1.1-.2.2-.4.3l-7.3 4.6c-.6.4-1.4.4-2 .1-.3-.2-.6-.4-.8-.7l-.7-1.1c-.6-1-.3-2.2.6-2.8l7.3-4.6c.4-.2.8-.3 1.2-.3-5.5-3-23.7-10.7-33.7 10.7-11.8 25.4 11 50.2-14.4 62.6 0 0 26.2 13.7 40.9-24.8 3.7 3.2 8.8 5.8 16 7.4-.6-5.6.8-9.8-2.1-12.8-1.3-1.4-2.7-1.5-4-2.4-.7-.5-1.4-.9-2-1.3-1.5-.9-2.6-1.3-2.8-1.4-1.1-1-1.9-2.4-2.1-4.1-.5-3.6-2.2-6.9 1.1-7.4.8-.1 1.6-.1 2.4.2 8-1.5 11.6-6.7 12.8-8.9 3.4 4.8 11.7 9.8 31.9 6.8.3 1.1.6 1.2.8 2.4l.5-1.3c-.1-13-13.2-23.5-29.2-23.5zM56.1 43.2z"/>
        <path fill="#FFE0B2"
              d="M61.4 89.7s6 8.6 19.4 9.7c5.1.4 11.3-.3 18.6-2.9-.1-.6-.3-1.2-.4-1.7-.2-1.1-3.2-18-3.4-23.6-.2-6.2.6-10 1.6-12.4h7.3l-2.1-8.5c-.1-2-.4-3.9-.6-5.6 0-.3-.1-.7-.2-1-.2-1.1-.4-2.3-.8-3.4-20.2 3-28.5-2-31.9-6.8-1.2 2.1-4.8 7.4-12.8 8.9-.8-.2-1.6-.3-2.4-.2-3.3.5-5.6 3.8-5.1 7.4.2 1.7 1 3.1 2.1 4.1.2.1 1.3.5 2.8 1.4.6.4 1.3.8 2 1.3 1.3.9 2.6 2 4 3.4 2.9 3 5.6 7.2 6.1 12.8.5 4.5-.6 10.2-4.2 17.1zm27.5-41.2c.7 0 1.3.6 1.3 1.3s-.6 1.3-1.3 1.3-1.3-.6-1.3-1.3.6-1.3 1.3-1.3zm-32.8-5.3c.1-.1 0-.1 0 0z"/>
        <path fill="#FFCC80" d="M53.7 100.9l.2-.2-.2.2z"/>
        <circle fill="#444" cx="88.9" cy="49.8" r="2"/>
        <path fill="#FF5722"
              d="M80.8 99.3c-13.3-1.1-19.4-9.7-19.4-9.7-1.8 3.4-4.3 7.1-7.5 11l-.3.3c-.4.5-.9 1.1-1.4 1.7-.7.9-1.6 2.1-2.8 3.7-2.3 3.2-5.4 7.8-8.8 13.5-1.4 2.4-2.9 5.1-4.4 8 0 0 0 .1-.1.1h71.3c-.6-1.6-1.3-3.2-1.7-4.8-2.2-8.6-4.6-17.9-6.5-26.8-7.2 2.8-13.3 3.5-18.4 3z"/>
        <path fill="#00BFA5"
              d="M55.7 16.7l-7.3 4.6c-1 .6-1.3 1.9-.6 2.8l.7 1.1c.2.3.5.6.8.7.6.3 1.4.3 2-.1l7.3-4.6.4-.3c.7-.7.8-1.7.3-2.5l-.7-1.1c-.4-.6-1-.9-1.6-1-.5 0-1 .1-1.3.4z"/>
    </svg>
    <svg viewBox="0 0 128 128" height="100%" width="100%" pointer-events="none" display="block" id="svg-14"  >
        <path fill="#B388FF" d="M0 0h128v128H0z"/>
        <path fill="#1C3AA9" d="M70.5 128h12.4c-5.1-15.8-6.6-23.9-7.2-28.4-1.9 8.8-4 19.3-5.2 28.4z"/>
        <path d="M92.9 32.8l-.2.1c.1 0 .2 0 .2-.1zm-1.2.5l-.7.1.7-.1zm.6-.2l-.3.1.3-.1zm-52 .3c-.2 0-.5 0-.7-.1.3 0 .5.1.7.1zm-.9-.2l-.5-.1.5.1zm-.7-.2c-.2-.1-.4-.2-.5-.3.1.1.3.2.5.3z"
              fill="none"/>
        <path fill="#2A56C6" d="M82.9 90.8v.2-.2z"/>
        <path fill="#FFE0B2"
              d="M31.2 47.2zM45.8 93c5.8 5.5 13.6 9.1 22.3 9.3 2.8-.1 5.4-.5 8-1.2l.8-3.8c4.3-19.3 9.7-37.4 15-52.9h6.9L94 36.2c-.2-1.2-.4-2.5-.7-3.6l-.4.3-.2.1-.4.2-.3.1-.3.1-.7.1H40.3c-.2 0-.5 0-.7-.1-.1 0-.1 0-.2-.1l-.5-.1-.2-.1c-.2-.1-.4-.2-.5-.3 0 0-.1 0-.1-.1-.1.2-.1.4-.1.7-1-.3-2-.4-3-.3-4.1.6-6.9 4.7-6.3 9.1.3 2 1.2 3.8 2.6 5 .3.1 1.6.7 3.4 1.7.8.4 1.6 1 2.5 1.6 1.5 1.1 3.2 2.5 4.9 4.1 0 0 16.3 12.3 3.4 38 .1.2.2.3.3.4zm34.1-51.9c.8 0 1.5.7 1.5 1.6 0 .9-.7 1.6-1.5 1.6s-1.5-.7-1.5-1.6.6-1.6 1.5-1.6z"/>
        <path fill="#2A56C6"
              d="M68.1 102.3c-8.7-.2-16.5-3.8-22.3-9.3-.1-.1-.2-.2-.4-.3-3-.2-7.6.2-10.8.6-4.6.6-9.6 1.3-15 2.4-3.6.7-8.1 1.9-19.7 5.3v27h71.4c1.3-9.1 2.9-18.1 4.7-26.9-2.5.7-5.1 1.1-7.9 1.2z"/>
        <path fill="#6D4C41" d="M61.8 9.8c-7.3 1.1-13.6 5.1-17.9 10.8h43.7C81.5 12.7 71.9 8.3 61.8 9.8z"/>
        <path fill="#E65100"
              d="M38.7 33l.2.1c.2.1.3.1.5.1.1 0 .1 0 .2.1l.7.1H91c.2 0 .5 0 .7-.1l.3-.1.3-.1c.1 0 .3-.1.4-.2l.2-.1.4-.3c1-.7 1.6-1.9 1.6-3.2v-4.8c0-2.2-1.8-4-4-4H40.4c-2.2 0-4 1.8-4 4v4.8c0 1.4.7 2.6 1.8 3.3 0 0 .1 0 .1.1s.2.2.4.3z"/>
        <ellipse fill="#444" cx="79.9" cy="42.7" rx="2" ry="2.2"/>
    </svg>

        
        <svg xmlns="http://www.w3.org/2000/svg" width="2500" height="2500" viewBox="0 0 192.744 192.744" id="svg-15">
        <g fill-rule="evenodd" clip-rule="evenodd"><path fill="#fff" d="M0 0h192.744v192.744H0V0z"/>
        <path d="M40.68 8.496l111.672.072c17.567 0 31.968 14.472 31.896 32.04v111.671c0 17.568-14.399 31.969-32.04 31.969l-111.744-.072c-17.568-.072-31.968-14.4-31.968-32.039L8.64 40.464c0-17.568 14.4-32.04 32.04-31.968z"/><path d="M159.552 88.632h-12.744l-5.256 10.008h8.929l9.071-10.008zm8.425 16.272h-12.385v26.783c0 8.209-5.544 10.512-9.575 10.512-3.889 0-8.137-1.439-8.064-8.566v-28.729h-12.456l-.072 30.527c0 11.809 6.769 17.064 16.128 17.064 6.48.072 11.521-2.809 14.328-7.775h.145v6.479h11.952v-46.295h-.001zM115.776 117.145c0-11.449-12.024-13.537-18.721-13.537-9.72 0-19.728 2.088-21.239 16.273H87.84c.36-2.736 1.512-6.48 7.704-6.48 3.168 0 8.208.287 8.208 5.4 0 2.592-2.448 3.383-4.464 3.672l-11.16 1.656c-7.92 1.08-13.824 5.76-13.824 14.832 0 9.576 7.344 13.535 14.4 13.535 8.496 0 12.528-3.889 15.264-6.695.288 2.52.504 3.168 1.225 5.398l10.656-.07c0-5.113-.072-8.857-.072-8.93v-25.054h-.001zm-12.024 17.496v-5.977c-1.296.936-3.384 1.729-8.496 2.447-4.68.793-8.496 2.018-8.496 7.057 0 4.176 3.456 5.545 5.832 5.545 5.472 0 11.16-3.457 11.16-9.072zM62.856 88.632H50.472v16.2h-6.408v8.713H50.4v28.15c0 5.977 1.944 10.08 12.672 10.08h1.656c1.943 0 3.96-.143 5.832-.215v-9.289c-.864.072-1.8.217-2.592.217-5.04 0-5.184-1.008-5.184-3.816l.072-25.127h7.776v-8.713h-7.776v-16.2zM38.304 88.56H24.912l-.072 62.569h13.392l.072-62.569z" fill="#fff"/></g></svg>



        <svg xmlns="http://www.w3.org/2000/svg" width="2500" height="2500" viewBox="0 0 192.756 192.756" id="svg-16">
        <g fill-rule="evenodd" clip-rule="evenodd"><path fill="#fff" d="M0 0h192.756v192.756H0V0z"/>
        <path d="M8.14 125.398h13.065c5.337 0 9.201 2.76 9.201 8.281 0 4.232-1.84 6.439-4.969 7.729v.184c3.681.736 5.705 3.129 5.705 7.178 0 7.912-6.072 9.568-11.041 9.568H8.14v-32.94zm7.545 26.684h2.208c2.76 0 5.705-.553 5.705-3.865 0-3.496-2.944-3.865-5.521-3.865h-2.393v7.73h.001zm0-13.619h2.208c2.392 0 4.968-.734 4.968-3.496 0-3.127-2.392-3.312-4.968-3.312h-2.208v6.808zM48.44 140.488c-.92-.184-1.656-.184-2.577-.184-3.312 0-5.152 2.76-5.152 7.545v10.488h-7.36V133.68h6.625v4.6c1.288-3.129 3.128-5.152 6.257-5.152.92 0 1.84.184 2.576.367l-.369 6.993zM62.794 158.338v-3.312c-1.289 2.576-3.68 3.865-6.44 3.865-4.232 0-7.913-2.393-7.913-7.73 0-7.543 6.993-8.465 10.857-8.465 1.288 0 2.576.186 3.496.369-.184-3.312-2.208-4.232-4.968-4.232-2.208 0-4.601.551-6.625 1.84l-.184-5.705c2.576-1.287 5.336-1.84 8.465-1.84 5.336 0 10.121 2.76 10.121 10.121v9.201c0 2.025 0 3.865.368 5.889h-7.177v-.001zm-4.601-5.336c2.024 0 3.681-.92 4.601-2.576v-3.129c-.92-.184-2.024-.184-3.128-.184-2.393 0-4.417.92-4.417 3.312.001 1.657 1.289 2.577 2.944 2.577zM95.366 158.338h-6.625v-3.68c-1.473 2.576-4.233 4.232-7.361 4.232-6.257 0-9.569-6.072-9.569-13.25 0-6.072 3.128-12.514 9.018-12.514 2.944 0 5.336.92 7.177 3.68h.184v-11.408h7.177v32.94h-.001zm-11.593-6.072c2.392 0 4.416-2.576 4.416-6.256 0-3.682-1.84-6.258-4.416-6.258-2.944 0-4.417 2.76-4.417 6.072 0 3.865 1.656 6.442 4.417 6.442zM105.303 148.586c.553 3.311 2.762 4.6 6.258 4.6 2.023 0 4.232-.553 6.439-1.84v5.889c-2.393 1.104-4.969 1.656-7.729 1.656-6.992 0-12.33-4.785-12.33-12.881 0-8.098 4.785-12.883 11.41-12.883 7.729 0 10.674 6.441 10.674 13.803v1.656h-14.722zm8.097-4.969c0-2.762-1.104-5.154-4.049-5.154-2.576 0-3.863 2.393-4.049 5.154h8.098zM122.418 151.529c1.656.736 4.232 1.656 6.809 1.656 1.471 0 2.943-.367 2.943-2.025 0-4.047-10.305-1.104-10.305-9.936 0-5.705 4.785-8.098 8.832-8.098 2.576 0 5.154.367 7.545 1.473l-.551 5.889c-1.656-1.105-3.865-1.656-5.705-1.656-1.656 0-3.312.367-3.312 1.656 0 3.863 10.674.92 10.674 10.121 0 6.625-4.969 8.281-9.754 8.281-3.312 0-5.52-.369-7.729-1.289l.553-6.072zM158.484 140.672c-1.287-.92-2.576-1.289-4.416-1.289-3.129 0-5.52 2.578-5.52 6.811 0 3.863 2.76 6.439 6.072 6.439 1.473 0 3.129-.367 4.416-1.104l.184 6.256c-1.84.736-4.047 1.105-5.889 1.105-6.992 0-12.328-4.785-12.328-12.881 0-8.098 5.336-12.883 12.328-12.883 2.209 0 4.049.367 5.705 1.473l-.552 6.073zM159.957 146.01c0-8.098 5.338-12.883 12.33-12.883s12.33 4.785 12.33 12.883c0 8.096-5.338 12.881-12.33 12.881s-12.33-4.786-12.33-12.881zm17.115 0c0-3.682-1.473-6.811-4.785-6.811s-4.785 3.129-4.785 6.811c0 3.68 1.473 6.809 4.785 6.809s4.785-3.13 4.785-6.809z" fill="#59595b"/><path fill="#fff" d="M54.513 26.763h82.258v82.073H54.513V26.763z"/><path d="M102.176 75.712h-6.81v33.124h-4.233V86.57h-2.944v22.266H54.513V26.763h82.258v82.073h-34.596V75.712h.001zM89.662 48.477c-4.233 0-8.097.368-11.962.92 5.153-6.257 12.881-10.489 21.714-10.489 6.994 0 13.434 2.761 18.402 7.177-5.152-6.257-12.881-10.121-21.347-10.121-10.489 0-19.69 5.888-24.475 14.721-5.153 1.289-9.569 3.129-13.25 5.337 3.681-1.656 7.913-2.944 12.33-3.864-1.84 3.864-2.76 8.281-2.76 12.881 0 8.833 3.68 16.746 9.753 22.083-4.232-5.152-6.993-11.777-6.993-18.954 0-6.257 2.024-12.146 5.152-16.746a71.936 71.936 0 0 1 9.018-.552c22.634 0 40.853 9.569 40.853 21.531 0 5.521-3.68 10.489-9.938 14.17 8.834-3.865 14.354-9.938 14.354-16.378.001-11.963-18.216-21.716-40.851-21.716z" fill="#cc203c"/></g></svg>

            <svg xmlns="http://www.w3.org/2000/svg" width="2500" height="2500" viewBox="0 0 192.756 192.756" id="svg-2">
            <g fill-rule="evenodd" clip-rule="evenodd">
            <path fill="#fff" d="M0 0h192.756v192.756H0V0z"/>
            <path d="M38.25 84.885c-1.035-1.15-2.1-1.985-3.279-2.561-1.151-.575-2.417-.834-3.797-.834-2.158 0-3.97.662-5.495 1.956-1.496 1.324-2.417 3.079-2.762 5.294-.316 2.129.029 3.854 1.093 5.121 1.036 1.294 2.618 1.927 4.718 1.927 1.266 0 2.589-.287 3.971-.805 1.38-.547 2.934-1.41 4.66-2.589l-2.532 13.723c-1.525.575-3.021 1.036-4.488 1.323a22.44 22.44 0 0 1-4.344.432c-1.784 0-3.481-.201-5.035-.604-1.611-.402-2.992-.949-4.2-1.697-2.963-1.841-5.035-4.2-6.243-7.048-1.207-2.85-1.553-6.101-.977-9.783.432-2.733 1.266-5.265 2.589-7.595a21.879 21.879 0 0 1 5.034-6.127 21.918 21.918 0 0 1 6.905-4.085c2.532-.92 5.178-1.381 7.969-1.381 1.467 0 2.906.144 4.287.46a16.06 16.06 0 0 1 3.999 1.381L38.25 84.885zm18.096 8.746h5.438l-.46-4.114c-.23-2.1-.374-3.711-.403-4.862a28.06 28.06 0 0 1 .115-3.165h-.201c-.23.979-.518 2.043-.863 3.165a99.696 99.696 0 0 1-1.87 4.862l-1.756 4.114zm-19.448 13.262l18.614-36.478h14.614l7.135 36.478H63.165l-.46-4.573h-9.896l-1.841 4.573h-14.07zm43.729 0l5.61-36.478h13.32l-5.581 36.478H80.627zM161.553 93.631h5.438l-.488-4.114c-.201-2.1-.346-3.711-.375-4.862a28.298 28.298 0 0 1 .115-3.165h-.201c-.201.979-.518 2.043-.863 3.165-.373 1.151-1.006 2.762-1.869 4.862l-1.757 4.114zm-19.448 13.262l18.613-36.478h14.615l7.135 36.478H168.37l-.459-4.573h-9.896l-1.842 4.573h-14.068zM16.818 115.438a5.361 5.361 0 0 0-1.496-1.122 4.345 4.345 0 0 0-1.755-.346c-.489 0-1.007.087-1.496.316-.489.202-.892.49-1.266.863-.374.374-.633.806-.834 1.266a4.681 4.681 0 0 0-.288 1.583 4.143 4.143 0 0 0 .662 2.301c.402.546.892.978 1.438 1.266.575.287 1.18.46 1.841.46a3.82 3.82 0 0 0 1.727-.403c.546-.229 1.007-.633 1.467-1.121v1.524a5.58 5.58 0 0 1-1.553.776c-.576.173-1.151.288-1.726.288a5.232 5.232 0 0 1-1.496-.23c-.489-.173-.949-.374-1.381-.661-.69-.518-1.237-1.094-1.611-1.812s-.546-1.525-.546-2.359c0-.748.115-1.438.374-2.043.23-.633.604-1.179 1.122-1.668a5.17 5.17 0 0 1 1.64-1.064c.604-.259 1.266-.374 1.985-.374.547 0 1.094.087 1.611.259a5.497 5.497 0 0 1 1.582.806v1.495h-.001zm5.265-.144l-1.553 3.566h3.107l-1.554-3.566zm0-2.561l4.431 10.098h-1.266l-1.266-2.992h-3.769l-1.266 2.992h-1.266l4.402-10.098zm5.667 10.098v-9.724h1.15v9.724h-1.15zm2.503 0l2.992-5.179-2.791-4.545h1.41l2.071 3.711 1.985-3.711h1.323l-2.732 4.66 3.078 5.063h-1.353l-2.388-4.2-2.272 4.2h-1.323v.001zm11.738-7.537l-1.525 3.566h3.078l-1.553-3.566zm0-2.561l4.43 10.098h-1.266l-1.237-2.992H40.12l-1.266 2.992h-1.266l4.403-10.098zM51.283 122.831v-9.724h5.092v1.064h-3.941v2.79h3.941v1.064h-3.941v3.711h3.941v1.094h-5.092v.001zm14.355-7.393a5.361 5.361 0 0 0-1.496-1.122 4.206 4.206 0 0 0-1.726-.346c-.518 0-1.036.087-1.524.316-.489.202-.893.49-1.266.863-.374.374-.633.806-.834 1.266a4.702 4.702 0 0 0-.259 1.583c0 .46.058.862.144 1.236.115.403.288.748.518 1.065.374.546.863.978 1.41 1.266.575.287 1.208.46 1.841.46s1.208-.144 1.726-.403c.547-.229 1.036-.633 1.467-1.121v1.524a5.58 5.58 0 0 1-1.553.776 5.697 5.697 0 0 1-1.726.288 5.232 5.232 0 0 1-1.496-.23c-.489-.173-.949-.374-1.352-.661-.719-.518-1.266-1.094-1.64-1.812s-.546-1.525-.546-2.359c0-.748.115-1.438.374-2.043.23-.633.633-1.179 1.122-1.668a4.977 4.977 0 0 1 1.668-1.064c.604-.259 1.237-.374 1.957-.374.575 0 1.093.087 1.64.259a5.73 5.73 0 0 1 1.553.806v1.495h-.002zm6.128 6.559c.518 0 1.036-.115 1.496-.316a4.358 4.358 0 0 0 1.323-.863c.374-.374.662-.806.863-1.295s.288-1.007.288-1.524c0-.547-.086-1.064-.288-1.554s-.489-.921-.863-1.295c-.402-.402-.805-.69-1.294-.863a3.556 3.556 0 0 0-1.525-.316c-.546 0-1.064.087-1.553.316-.46.173-.892.461-1.266.863-.374.374-.662.806-.863 1.295s-.316 1.007-.316 1.554c0 .518.115 1.035.316 1.524.201.46.489.893.863 1.295.374.374.834.662 1.295.863.489.201.978.316 1.524.316zm5.179-3.999c0 .69-.115 1.323-.374 1.956a5.224 5.224 0 0 1-1.122 1.64 5.527 5.527 0 0 1-1.697 1.093 5.297 5.297 0 0 1-1.985.403c-.69 0-1.352-.144-1.985-.403a5.527 5.527 0 0 1-1.697-1.093 5.202 5.202 0 0 1-1.122-1.64c-.259-.633-.374-1.266-.374-1.956s.114-1.353.374-1.985a5.224 5.224 0 0 1 1.122-1.64 5.567 5.567 0 0 1 1.697-1.094c.633-.259 1.294-.374 1.985-.374s1.353.115 1.985.374c.633.26 1.208.634 1.697 1.094a5.202 5.202 0 0 1 1.122 1.64c.259.633.374 1.265.374 1.985zm1.294 4.833v-10.098l7.106 7.768v-7.394h1.093v10.098l-7.105-7.682v7.308h-1.094zm14.672-.834c.547 0 1.036-.115 1.525-.316s.92-.489 1.294-.863a3.91 3.91 0 0 0 .863-1.295 4.008 4.008 0 0 0 .317-1.524c0-.547-.115-1.064-.317-1.554a3.91 3.91 0 0 0-.863-1.295 3.218 3.218 0 0 0-1.294-.863c-.46-.229-.978-.316-1.525-.316-.518 0-1.036.087-1.524.316-.489.173-.92.461-1.266.863-.403.374-.69.806-.892 1.295a4.02 4.02 0 0 0-.288 1.554c0 .518.086 1.035.288 1.524.201.46.489.893.892 1.295.374.374.806.662 1.295.863a3.77 3.77 0 0 0 1.495.316zm5.208-3.999c0 .69-.145 1.323-.404 1.956a5.208 5.208 0 0 1-1.122 1.64 5.192 5.192 0 0 1-1.697 1.093 5.18 5.18 0 0 1-1.985.403 5.06 5.06 0 0 1-1.956-.403 5.218 5.218 0 0 1-1.698-1.093 4.395 4.395 0 0 1-1.122-1.64c-.288-.633-.403-1.266-.403-1.956s.115-1.353.403-1.985c.23-.604.604-1.15 1.122-1.64a5.242 5.242 0 0 1 1.698-1.094c.604-.259 1.294-.374 1.956-.374.69 0 1.353.115 2.014.374.633.26 1.18.634 1.668 1.094a5.185 5.185 0 0 1 1.122 1.64c.26.633.404 1.265.404 1.985zm-7.164-5.841l1.323-2.301h1.294l1.295 2.301h-.806l-1.151-1.524-1.15 1.524h-.805zm12.975 11.048l-3.02-6.991-1.209 6.617h-1.123l1.957-10.098 3.395 8.026 3.395-8.026 1.957 10.098h-1.123l-1.236-6.617-2.993 6.991zm6.271-.374v-9.724h1.15v9.724h-1.15zm10.789-7.393c-.461-.489-.949-.863-1.469-1.122a4.434 4.434 0 0 0-1.754-.346c-.518 0-1.008.087-1.496.316-.488.202-.92.49-1.266.863a3.572 3.572 0 0 0-.834 1.266c-.201.489-.289 1.008-.289 1.583 0 .46.059.862.174 1.236.115.403.258.748.488 1.065.404.546.863.978 1.439 1.266.574.287 1.18.46 1.84.46a4 4 0 0 0 1.727-.403c.518-.229 1.008-.633 1.439-1.121v1.524a5.59 5.59 0 0 1-1.555.776 5.696 5.696 0 0 1-1.725.288 5.38 5.38 0 0 1-1.496-.23c-.461-.173-.922-.374-1.354-.661-.719-.518-1.236-1.094-1.611-1.812a5.116 5.116 0 0 1-.574-2.359c0-.748.115-1.438.373-2.043a4.699 4.699 0 0 1 1.152-1.668 4.59 4.59 0 0 1 1.639-1.064c.604-.259 1.266-.374 1.984-.374.547 0 1.094.087 1.611.259a5.755 5.755 0 0 1 1.555.806v1.495h.002zm4.459-.144l-1.555 3.566h3.107l-1.552-3.566zm0-2.561l4.4 10.098h-1.236l-1.266-2.992h-3.797l-1.238 2.992h-1.266l4.403-10.098zM134.625 122.831v-9.724h5.121v1.064h-3.969v2.79h3.969v1.064h-3.969v4.805h-1.152v.001zm6.59 0v-9.724h5.119v1.064h-3.969v2.79h3.969v1.064h-3.969v3.711h3.969v1.094h-5.119v.001zm7.939-1.094h.719c1.209 0 2.043-.057 2.475-.172.461-.086.863-.259 1.15-.519.402-.345.719-.747.92-1.294a4.9 4.9 0 0 0 .318-1.784c0-.69-.115-1.294-.318-1.783a3.235 3.235 0 0 0-.92-1.295c-.287-.259-.689-.432-1.15-.547-.488-.114-1.295-.144-2.475-.144h-.719v7.538zm-1.179 1.094v-9.724h1.869c1.381 0 2.359.086 2.906.229a4.218 4.218 0 0 1 1.496.691c.547.431.979.978 1.266 1.64.289.661.402 1.438.402 2.301 0 .863-.113 1.64-.402 2.302a4.188 4.188 0 0 1-1.266 1.64 4.3 4.3 0 0 1-1.467.69c-.547.145-1.381.23-2.504.23H147.975v.001zm9.55 0v-9.724h5.121v1.064h-3.971v2.79h3.971v1.064h-3.971v3.711h3.971v1.094h-5.121v.001zm6.762 0v-9.724h2.301c.633 0 1.121.058 1.41.114.316.087.574.202.805.374.289.23.518.547.662.921.172.374.23.777.23 1.237 0 .806-.201 1.409-.662 1.812-.432.432-1.094.633-1.955.633h-.203l3.711 4.632h-1.467l-3.537-4.632h-.174v4.632h-1.121v.001zm1.121-8.746v3.251h.893c.891 0 1.496-.115 1.812-.345.316-.23.459-.633.459-1.209 0-.633-.172-1.064-.459-1.323-.316-.229-.922-.374-1.812-.374h-.893zm8.918 1.209l-1.553 3.566h3.107l-1.554-3.566zm0-2.561l4.402 10.098h-1.236l-1.268-2.992h-3.797l-1.266 2.992h-1.236l4.401-10.098zm5.121 10.098v-9.724h1.15v8.602h3.654v1.122h-4.804zM139.287 107.411h-16.312l-9.379-17.866h16.312l9.379 17.866z" fill="#526687"/><path fill="#cf9149" d="M148.09 69.925h-16.313l-16.828 17.866h16.311l16.83-17.866z"/><path fill="#526687" d="M105.455 69.925h16.311l9.379 17.866h-16.311l-9.379-17.866z"/>
            <path fill="#cf9149" d="M96.623 107.411h16.34l16.83-17.866H113.48l-16.857 17.866z"/></g></svg>

      <svg xmlns="http://www.w3.org/2000/svg" xmlns:xlink="http://www.w3.org/1999/xlink" width="2500" height="943" viewBox="0 0 737.863 278.44" id="svg-3" >
        <defs><path  d="M530.385 215.189c76.064 71.969 204.938 20.336 205.631-90.76-106.981-7.691-151.258 52.214-205.631 90.76z"/></defs>
        <clipPath id="b"><use xlink:href="#a" overflow="visible"/></clipPath>
        <path clip-path="url(#b)" fill-rule="evenodd" clip-rule="evenodd" fill="#33348e" d="M458.385 51.758h349.631v268.648H458.385V51.758z"/>
        <path d="M530.385 215.189c76.064 71.969 204.938 20.336 205.631-90.76-106.981-7.691-151.258 52.214-205.631 90.76z" fill="none" stroke="#fff" stroke-width="1.188" stroke-miterlimit="2.613"/>
        <path d="M526.617 208.02c.754.811 1.527 1.619 2.311 2.418 41.959-49.535 84.303-93.629 87.555-190.004 1.436-6.201-.08-13.058.936-19.815C681.302 3.6 735.315 57.838 735.825 123.623c-46.156-3.166-80.59 6.573-109.359 21.668-37.492 18.805-65.252 46.883-96.051 68.266a126.52 126.52 0 0 1-4.516-4.689c.24-.284.478-.567.718-.848z" fill-rule="evenodd" clip-rule="evenodd" fill="#cc2229" stroke="#fff" stroke-width="1.188" stroke-miterlimit="2.613"/>
        <path d="M531.045 210.543L701.432 38.698M529.9 211.371c23.336-25.16 97.604-107.907 105.561-209.148M654.279 7.4c-7.039 44.363-56.115 134.959-123.799 204.02m.317.4C570.08 170.637 646.016 83.735 670.578 13.974M531.773 211.109C559.602 185.896 667.75 61.352 686.758 25.087" fill="none" stroke="#fff" stroke-width="2.959" stroke-miterlimit="2.613"/>
        <path d="M532.123 211.225c29.447-24.412 98.623-94.775 201.422-104.799-102.799 10.024-171.975 80.386-201.422 104.799z" fill="none" stroke="#fff" stroke-width="3.019" stroke-miterlimit="2.613"/>
        <path d="M730.408 87.855c-44.156 6.131-130.924 56.067-200.184 124.62m-.376-.303c41.27-38.975 125.742-117.111 194.541-140.516M530.592 210.529c25.35-27.812 148.701-137.876 184.633-156.395M531.045 210.543L701.432 38.698" fill="none" stroke="#fff" stroke-width="2.959" stroke-miterlimit="2.613"/>
        <path d="M529.9 211.371c23.336-25.16 97.604-107.906 105.561-209.149-7.957 101.243-82.225 183.989-105.561 209.149z" fill="none" stroke="#fff" stroke-width="3.019" stroke-miterlimit="2.613"/>
        <path d="M654.279 7.4c-7.039 44.363-56.115 134.959-123.799 204.02m.317.4C570.08 170.637 646.016 83.735 670.578 13.974M531.773 211.109C559.602 185.896 667.75 61.352 686.758 25.087" fill="none" stroke="#fff" stroke-width="2.959" stroke-miterlimit="2.613"/>
        <path d="M532.123 211.225c29.447-24.412 98.623-94.775 201.422-104.799-102.799 10.024-171.975 80.386-201.422 104.799z" fill="none" stroke="#fff" stroke-width="3.019" stroke-miterlimit="2.613"/>
        <path d="M730.408 87.855c-44.156 6.131-130.924 56.067-200.184 124.62m-.376-.303c41.27-38.975 125.742-117.111 194.541-140.516M530.592 210.529c25.35-27.812 148.701-137.876 184.633-156.395" fill="none" stroke="#fff" stroke-width="2.959" stroke-miterlimit="2.613"/>
        <path d="M528.324 211.43C454.347 135.661 506.088 1.68 616.006.812c2.17 110.763-42.977 157.588-87.682 210.618z" fill-rule="evenodd" clip-rule="evenodd" fill="#33a457" stroke="#fff" stroke-width="1.188" stroke-miterlimit="2.613"/>
        <path d="M32.495 77.639h5.888c2.646 0 4.934-1.033 6.81-3.096 1.876-2.065 3.193-4.965 3.915-8.684.793-4.096.612-7.061-.531-8.881-1.155-1.834-3.444-2.752-6.846-2.752h-4.699l-4.537 23.413zm-7.328 37.828h6.265c3.133 0 5.647-.999 7.486-2.965 1.842-1.982 3.188-5.112 4.009-9.354.908-4.688.729-8.043-.503-10.043-1.249-1.999-3.808-3.013-7.643-3.013h-4.699l-4.915 25.375zM8.279 127.919l16.69-86.146h19.299c7.758 0 13.391 1.966 16.866 5.866 3.473 3.916 4.524 9.454 3.141 16.598-.832 4.292-2.39 8.061-4.672 11.288-2.285 3.244-5.402 6.046-9.292 8.373 3.495 2.031 5.85 4.75 7.028 8.142 1.198 3.392 1.303 7.683.306 12.827-1.524 7.865-4.558 13.682-9.063 17.416-4.526 3.752-10.797 5.637-18.771 5.637H8.279v-.001zm81.044-15.843l3.196-16.497c-5.156 2.734-8.856 5.291-11.036 7.618-2.201 2.343-3.635 5.193-4.279 8.519-.384 1.982-.322 3.522.155 4.588.479 1.065 1.381 1.605 2.641 1.605 1.513 0 3.145-.524 4.842-1.573 1.716-1.049 3.217-2.474 4.481-4.26zm-1.29 8.7c-2.543 2.54-5.232 4.521-8.02 5.898-2.787 1.376-5.517 2.081-8.145 2.081-3.619 0-6.192-1.212-7.706-3.622-1.511-2.424-1.832-5.88-.962-10.371 1.136-5.864 3.927-10.877 8.356-14.974 4.433-4.111 12.03-8.567 22.728-13.319l1.326-6.848c.368-1.901.275-3.375-.271-4.358-.548-.983-1.548-1.492-2.988-1.492-1.836 0-3.369.476-4.597 1.425-1.229.952-2.007 2.278-2.331 3.949l-.68 3.506h-13.16c.038-.196.073-.476.104-.819.034-.361.052-.638.09-.835 1.031-5.325 3.738-9.717 8.105-13.125 4.37-3.408 9.365-5.127 14.983-5.127 5.888 0 9.962 1.638 12.178 4.882 2.23 3.26 2.7 8.274 1.392 15.024l-5.25 27.097c-.824 4.26-1.437 7.979-1.834 11.142-.399 3.178-.547 5.521-.443 7.028H87.874c-.184-.82-.278-1.818-.243-2.932.04-1.132.15-2.541.384-4.212h.018v.002zm23.552 7.143L123.9 64.352h13.162l-1.353 6.979c2.869-2.541 5.731-4.489 8.545-5.817 2.814-1.326 5.429-1.999 7.821-1.999 3.042 0 5.166.934 6.316 2.802 1.168 1.867 1.399 4.669.677 8.405l-10.308 53.197h-13.033l9.291-47.954c.384-1.982.392-3.327.018-3.997-.374-.672-1.225-1.017-2.521-1.017-.954 0-2.25.458-3.824 1.343-1.576.885-3.135 2.049-4.607 3.426l-9.338 48.199h-13.161zm51.653-17.94l5.434-28.048c1.13-5.833 3.832-10.486 8.105-13.959 4.275-3.474 9.349-5.226 15.182-5.226 5.798 0 10.03 1.654 12.688 4.947 2.656 3.294 3.421 7.897 2.284 13.763l-.968 4.997h-13.358l.991-5.111c.514-2.654.436-4.572-.242-5.718-.678-1.148-2.004-1.737-3.948-1.737-2.054 0-3.64.573-4.745 1.721-1.123 1.146-1.947 3.08-2.461 5.734l-5.482 28.293c-.644 3.325-.663 5.651-.083 6.931.598 1.278 1.931 1.933 3.982 1.933 2.142 0 3.762-.557 4.818-1.639 1.056-1.081 1.957-3.505 2.678-7.225l.949-4.899h13.358l-1.017 5.244c-1.263 6.52-3.854 11.436-7.729 14.712-3.879 3.293-9.077 4.948-15.521 4.948-5.763 0-9.996-1.753-12.666-5.26-2.667-3.505-3.426-8.322-2.249-14.401zm60.552 3.048c-.336 1.735-.131 3.096.583 4.046.717.952 1.958 1.426 3.649 1.426 1.747 0 3.247-.491 4.441-1.458 1.214-.966 1.996-2.311 2.327-4.014l6.704-34.603c.267-1.375-.037-2.506-.916-3.357-.879-.853-2.198-1.295-3.89-1.295-1.567 0-2.927.427-4.065 1.278-1.137.853-1.863 2-2.13 3.375l-6.703 34.602zM216.989 78.9c.951-4.916 3.459-8.848 7.5-11.764 4.058-2.916 9.043-4.39 14.929-4.39 5.365 0 9.476 1.54 12.3 4.619 2.824 3.081 3.784 7.046 2.845 11.896l-6.357 32.815c-1.055 5.44-3.575 9.717-7.52 12.796-3.968 3.096-8.912 4.653-14.782 4.653-5.671 0-9.915-1.606-12.683-4.785-2.785-3.195-3.66-7.504-2.611-12.91l6.379-32.93zm91.776 36.928l7.675-39.614c-.798-.901-1.619-1.589-2.436-2.015a5.35 5.35 0 0 0-2.553-.672c-1.566 0-2.941.589-4.102 1.753-1.166 1.179-1.955 2.835-2.361 4.931l-6.36 32.833c-.381 1.966-.3 3.408.251 4.276.553.868 1.619 1.31 3.185 1.31a8.823 8.823 0 0 0 3.297-.656c1.055-.426 2.203-1.146 3.4-2.13l.004-.016zm-1.374 7.094c-2.077 1.982-4.253 3.457-6.489 4.408a17.925 17.925 0 0 1-7.082 1.425c-3.799 0-6.465-1.196-7.985-3.571-1.522-2.377-1.834-5.866-.953-10.422l6.833-35.272c1.007-5.194 2.855-9.158 5.507-11.878s6.05-4.096 10.155-4.096a11.1 11.1 0 0 1 5.646 1.523c1.766 1.017 3.35 2.507 4.721 4.44l5.368-27.706h13.033l-16.688 86.146h-13.035l.969-4.997zm39.743-9.895c-.337 1.735-.131 3.096.584 4.046.715.952 1.956 1.426 3.649 1.426 1.746 0 3.246-.491 4.44-1.458 1.214-.966 1.997-2.311 2.327-4.014l6.703-34.603c.268-1.375-.035-2.506-.916-3.357-.879-.853-2.196-1.295-3.889-1.295-1.566 0-2.928.427-4.065 1.278-1.136.853-1.863 2-2.13 3.375l-6.703 34.602zM340.333 78.9c.951-4.916 3.459-8.848 7.5-11.764 4.058-2.916 9.043-4.39 14.93-4.39 5.365 0 9.476 1.54 12.3 4.619 2.824 3.081 3.785 7.046 2.846 11.896l-6.359 32.815c-1.053 5.44-3.574 9.717-7.52 12.796-3.966 3.096-8.912 4.653-14.78 4.653-5.672 0-9.917-1.606-12.684-4.785-2.785-3.195-3.659-7.504-2.612-12.91l6.379-32.93zM9.743 229.67l16.69-86.146H39.52l8.551 51.48c.152.982.327 2.309.517 3.932.189 1.621.372 3.373.514 5.24.015-2.49.052-4.816.173-6.93.124-2.129.267-3.701.458-4.686l9.499-49.037h13.683L56.227 229.67H42.544l-8.584-47.594a6.75 6.75 0 0 1-.171-.885c-.592-3.262-.961-6.094-1.094-8.471-.08 3.014-.155 5.537-.254 7.535-.1 2-.241 3.475-.416 4.377L23.3 229.67H9.743zm75.153-14.893c-.337 1.736-.133 3.096.583 4.047.717.949 1.958 1.426 3.649 1.426 1.748 0 3.247-.492 4.442-1.459 1.213-.967 1.996-2.311 2.326-4.014l6.704-34.602c.266-1.377-.037-2.508-.916-3.359s-2.198-1.293-3.891-1.293c-1.566 0-2.926.424-4.064 1.277-1.137.852-1.864 1.998-2.13 3.375l-6.703 34.602zm-6.803-34.127c.953-4.916 3.461-8.848 7.501-11.764 4.058-2.916 9.042-4.391 14.929-4.391 5.365 0 9.476 1.541 12.301 4.619 2.822 3.08 3.784 7.047 2.843 11.896l-6.358 32.814c-1.053 5.439-3.573 9.715-7.519 12.797-3.968 3.096-8.912 4.652-14.782 4.652-5.671 0-9.915-1.605-12.684-4.783-2.783-3.195-3.659-7.504-2.612-12.91l6.381-32.93zm39.42 49.02l12.316-63.568h13.16l-1.672 8.635c2.253-3.082 4.688-5.424 7.297-6.998 2.609-1.57 5.408-2.357 8.324-2.357h1.313l-2.575 13.287a8.249 8.249 0 0 0-1.84-.623 11.915 11.915 0 0 0-2.263-.213c-3.349 0-6.191.918-8.47 2.736-2.3 1.834-3.756 4.342-4.372 7.52l-8.057 41.582h-13.161v-.001zm60.405-12.092l7.675-39.613c-.797-.902-1.619-1.59-2.436-2.018a5.368 5.368 0 0 0-2.553-.67c-1.567 0-2.941.59-4.102 1.752-1.166 1.18-1.954 2.834-2.36 4.932l-6.361 32.832c-.381 1.965-.3 3.408.251 4.275.552.869 1.619 1.312 3.185 1.312 1.117 0 2.241-.23 3.295-.656s2.204-1.146 3.402-2.131l.004-.015zm-1.374 7.096c-2.077 1.982-4.253 3.455-6.489 4.406s-4.597 1.426-7.081 1.426c-3.8 0-6.466-1.195-7.987-3.572-1.52-2.375-1.833-5.865-.951-10.42l6.833-35.273c1.008-5.193 2.855-9.158 5.507-11.879 2.652-2.719 6.051-4.096 10.156-4.096a11.1 11.1 0 0 1 5.646 1.523c1.765 1.018 3.349 2.508 4.721 4.441l5.368-27.707H205.3l-16.69 86.146h-13.033l.967-4.995zm44.637-35.16h11.396l1.245-6.422c.514-2.654.436-4.57-.242-5.719-.678-1.146-2.005-1.736-3.949-1.736-2.053 0-3.64.574-4.745 1.721-1.123 1.148-1.947 3.08-2.461 5.734l-1.244 6.422zm-17.715 22.215l5.524-28.521c1.068-5.506 3.777-10.012 8.104-13.484 4.328-3.475 9.421-5.227 15.218-5.227 5.941 0 10.198 1.621 12.745 4.832 2.566 3.211 3.269 7.85 2.101 13.879l-3.139 16.201h-24.753l-2.32 11.977c-.644 3.326-.664 5.652-.083 6.932.598 1.277 1.931 1.934 3.982 1.934 2.142 0 3.763-.559 4.819-1.639 1.056-1.082 1.957-3.508 2.678-7.227l.857-4.422h13.357l-.924 4.766c-1.263 6.521-3.854 11.436-7.729 14.715-3.879 3.293-9.077 4.947-15.522 4.947-5.798 0-10.049-1.754-12.703-5.242-2.656-3.494-3.397-8.308-2.212-14.421zm44.512.705l13.062-2.555c-.158 3.703.299 6.357 1.32 7.963 1.039 1.604 2.792 2.408 5.241 2.408 1.836 0 3.411-.51 4.684-1.508 1.278-1.016 2.099-2.377 2.43-4.08.637-3.293-2.863-7.996-10.51-14.057a1.709 1.709 0 0 0-.276-.246c-3.827-3.014-6.406-5.963-7.691-8.812-1.283-2.852-1.588-6.113-.889-9.717 1.006-5.193 3.582-9.387 7.727-12.566s9.098-4.768 14.806-4.768c5.365 0 9.418 1.475 12.161 4.408 2.74 2.947 3.829 6.994 3.235 12.107l-12.831 2.67c.053-2.686-.383-4.719-1.241-6.045-.877-1.328-2.278-2-4.151-2-1.728 0-3.213.508-4.398 1.523-1.206 1.018-1.974 2.375-2.303 4.08-.539 2.785 1.841 6.391 7.128 10.781 1.418 1.229 2.545 2.195 3.316 2.867 4.108 3.686 6.809 6.945 8.051 9.73 1.262 2.785 1.548 5.947.873 9.436-1.017 5.244-3.615 9.455-7.771 12.602-4.171 3.145-9.197 4.734-15.03 4.734-5.58 0-9.902-1.672-12.913-4.998-3.006-3.342-4.356-7.994-4.031-13.943l.001-.014zm52.08 3.834l7.803-40.27h-8.048l1.917-9.896h8.047l3.542-18.285h12.962l-3.542 18.285h9.686l-1.916 9.896h-9.687l-7.582 39.139c-.354 1.82-.133 3.195.665 4.096.794.918 2.146 1.377 4.018 1.377.433 0 1-.049 1.631-.148.65-.096 1.452-.244 2.354-.441l-1.936 10.371a25.24 25.24 0 0 1-3.823.77 33.42 33.42 0 0 1-3.915.23c-5.042 0-8.595-1.262-10.613-3.77-2.013-2.522-2.541-6.308-1.563-11.354zm49.438-26.754h11.396l1.244-6.422c.514-2.654.436-4.57-.242-5.719-.678-1.146-2.005-1.736-3.949-1.736-2.053 0-3.64.574-4.744 1.721-1.123 1.148-1.947 3.08-2.461 5.734l-1.244 6.422zm-17.717 22.215l5.526-28.521c1.067-5.506 3.776-10.012 8.104-13.484 4.327-3.475 9.42-5.227 15.218-5.227 5.941 0 10.198 1.621 12.745 4.832 2.564 3.211 3.268 7.85 2.1 13.879l-3.141 16.201h-24.752l-2.32 11.977c-.644 3.326-.664 5.652-.083 6.932.598 1.277 1.931 1.934 3.982 1.934 2.144 0 3.763-.559 4.819-1.639 1.056-1.082 1.957-3.508 2.678-7.227l.857-4.422h13.358l-.924 4.766c-1.264 6.521-3.854 11.436-7.729 14.715-3.879 3.293-9.077 4.947-15.522 4.947-5.798 0-10.049-1.754-12.704-5.242-2.656-3.494-3.397-8.308-2.212-14.421z" fill-rule="evenodd" clip-rule="evenodd" fill="#cc2229" stroke="#cc2229" stroke-width=".157" stroke-miterlimit="2.613"/><path fill="none" stroke="#cc2229" stroke-width="10.997" stroke-miterlimit="2.613" d="M0 272.941h737.863"/></svg>


  <svg xmlns="http://www.w3.org/2000/svg" width="2500" height="715" viewBox="0 0 383.476 109.609" id="svg-4">
  <path d="M61.067 0c-2.25 26.909 28.188 36.212 21.72 53.312 64.776 16.276 28.677 56.827-21.804 56.238-50.631 1.771-94.624-36.589-24.773-56.727-.293 15.582 24.925 24.491 20.672 42.213 7.679-6.941 8.204-16.407 1.577-28.396-14.87-15.829-23.657-31.291-10.728-45.435-5.004 20.759 28.204 34.868 23.032 53.638 6.868-9.038 11.409-20.287-2.839-34.391C51.541 22.759 52.202 10.958 61.067 0z" fill-rule="evenodd" clip-rule="evenodd" fill="#cc2229"/><path d="M157.44 19.188c1.368-.288 3.527-.504 5.723-.504 3.131 0 5.147.54 6.659 1.764 1.26.936 2.016 2.376 2.016 4.284 0 2.339-1.548 4.391-4.104 5.327v.072c2.304.576 5.003 2.483 5.003 6.083 0 2.088-.828 3.671-2.052 4.859-1.692 1.548-4.427 2.268-8.387 2.268-2.16 0-3.816-.144-4.859-.288V19.188zm3.132 9.935h2.844c3.312 0 5.255-1.728 5.255-4.067 0-2.844-2.16-3.959-5.328-3.959-1.439 0-2.268.108-2.771.216v7.81zm0 11.627c.612.108 1.512.144 2.628.144 3.239 0 6.227-1.188 6.227-4.715 0-3.312-2.844-4.679-6.263-4.679h-2.592v9.25zM186.491 43.125l-.252-2.196h-.108c-.972 1.368-2.844 2.592-5.327 2.592-3.528 0-5.328-2.484-5.328-5.003 0-4.211 3.744-6.515 10.475-6.479v-.36c0-1.439-.396-4.031-3.959-4.031-1.62 0-3.312.504-4.535 1.296l-.72-2.088c1.44-.936 3.528-1.548 5.724-1.548 5.327 0 6.623 3.636 6.623 7.127v6.515c0 1.512.072 2.987.288 4.175h-2.881zm-.468-8.891c-3.456-.072-7.379.54-7.379 3.924 0 2.052 1.368 3.023 2.988 3.023 2.268 0 3.708-1.44 4.211-2.916.108-.324.18-.684.18-1.008v-3.023zM194.197 30.418c0-1.8-.036-3.275-.145-4.715h2.808l.181 2.88h.071c.864-1.656 2.88-3.276 5.76-3.276 2.411 0 6.155 1.44 6.155 7.415v10.403h-3.168V33.082c0-2.808-1.044-5.147-4.031-5.147-2.088 0-3.708 1.476-4.247 3.239-.145.396-.217.936-.217 1.476v10.475h-3.167V30.418zM226.595 42.477c-.828.432-2.663 1.008-5.003 1.008-5.256 0-8.675-3.563-8.675-8.891 0-5.363 3.671-9.251 9.358-9.251 1.872 0 3.527.468 4.392.9l-.72 2.448c-.756-.432-1.944-.828-3.672-.828-3.995 0-6.155 2.952-6.155 6.587 0 4.031 2.592 6.515 6.048 6.515 1.799 0 2.987-.468 3.887-.864l.54 2.376zM246.071 34.27c0 6.443-4.463 9.251-8.675 9.251-4.716 0-8.351-3.456-8.351-8.963 0-5.832 3.815-9.251 8.639-9.251 5.003 0 8.387 3.636 8.387 8.963zm-13.822.18c0 3.815 2.196 6.695 5.291 6.695 3.024 0 5.292-2.843 5.292-6.767 0-2.952-1.476-6.695-5.22-6.695-3.743 0-5.363 3.456-5.363 6.767z"/><g><path d="M158.125 85.558c2.08 1.28 5.12 2.347 8.319 2.347 4.747 0 7.52-2.506 7.52-6.133 0-3.359-1.92-5.279-6.773-7.146-5.866-2.079-9.493-5.119-9.493-10.186 0-5.6 4.64-9.759 11.626-9.759 3.68 0 6.346.853 7.946 1.76l-1.28 3.786a14.313 14.313 0 0 0-6.826-1.707c-4.906 0-6.772 2.934-6.772 5.387 0 3.359 2.186 5.013 7.146 6.933 6.08 2.347 9.172 5.28 9.172 10.56 0 5.546-4.106 10.346-12.585 10.346-3.466 0-7.253-1.013-9.173-2.293l1.173-3.895zM199.187 91.211l-.373-3.253h-.16c-1.44 2.026-4.213 3.84-7.893 3.84-5.226 0-7.893-3.68-7.893-7.413 0-6.239 5.546-9.652 15.519-9.6v-.533c0-2.133-.587-5.973-5.866-5.973-2.4 0-4.907.746-6.72 1.92l-1.067-3.093c2.133-1.387 5.227-2.294 8.48-2.294 7.893 0 9.812 5.387 9.812 10.56v9.652c0 2.24.106 4.427.427 6.187h-4.266zm-.693-13.173c-5.119-.106-10.933.801-10.933 5.813 0 3.04 2.026 4.479 4.426 4.479 3.36 0 5.493-2.133 6.24-4.319.16-.48.267-1.014.267-1.493v-4.48zM210.597 72.386c0-2.667-.053-4.854-.213-6.986h4.16l.267 4.267h.106c1.279-2.453 4.267-4.854 8.532-4.854 3.573 0 9.12 2.134 9.12 10.986v15.412h-4.693V76.332c0-4.16-1.547-7.626-5.973-7.626-3.094 0-5.493 2.187-6.293 4.8-.214.586-.32 1.387-.32 2.187v15.519h-4.693V72.386zM245.845 57.986v7.413h6.72v3.573h-6.72v13.919c0 3.2.906 5.013 3.52 5.013 1.227 0 2.134-.16 2.72-.319l.214 3.52c-.907.373-2.347.64-4.16.64-2.187 0-3.946-.693-5.066-1.973-1.333-1.387-1.812-3.68-1.812-6.72V68.973h-4V65.4h4v-6.187l4.584-1.227zM272.135 91.211l-.373-3.253h-.16c-1.44 2.026-4.213 3.84-7.893 3.84-5.227 0-7.894-3.68-7.894-7.413 0-6.239 5.547-9.652 15.52-9.6v-.533c0-2.133-.587-5.973-5.866-5.973-2.4 0-4.906.746-6.72 1.92l-1.066-3.093c2.133-1.387 5.226-2.294 8.479-2.294 7.893 0 9.812 5.387 9.812 10.56v9.652c0 2.24.106 4.427.427 6.187h-4.266zm-.693-13.173c-5.12-.106-10.933.801-10.933 5.813 0 3.04 2.026 4.479 4.427 4.479 3.359 0 5.492-2.133 6.239-4.319.16-.48.267-1.014.267-1.493v-4.48zM283.545 72.386c0-2.667-.053-4.854-.213-6.986h4.16l.267 4.267h.106c1.279-2.453 4.267-4.854 8.532-4.854 3.573 0 9.12 2.134 9.12 10.986v15.412h-4.693V76.332c0-4.16-1.547-7.626-5.973-7.626-3.094 0-5.493 2.187-6.293 4.8-.214.586-.32 1.387-.32 2.187v15.519h-4.693V72.386zM335.432 53.347v31.198c0 2.293.054 4.906.214 6.666h-4.213l-.214-4.479h-.106c-1.44 2.88-4.587 5.066-8.8 5.066-6.239 0-11.039-5.28-11.039-13.119-.053-8.586 5.279-13.866 11.572-13.866 3.946 0 6.613 1.867 7.786 3.946h.107V53.347h4.693zm-4.692 22.558c0-.587-.054-1.387-.214-1.973-.693-2.987-3.253-5.44-6.772-5.44-4.854 0-7.733 4.267-7.733 9.973 0 5.227 2.561 9.546 7.627 9.546 3.146 0 6.025-2.079 6.879-5.6.16-.64.214-1.279.214-2.026v-4.48zM345.829 79.158c.107 6.347 4.16 8.96 8.853 8.96 3.36 0 5.387-.587 7.146-1.334l.8 3.36c-1.653.746-4.479 1.6-8.586 1.6-7.946 0-12.692-5.227-12.692-13.013s4.587-13.919 12.105-13.919c8.427 0 10.666 7.413 10.666 12.159 0 .96-.106 1.707-.159 2.187h-18.133zm13.759-3.359c.053-2.986-1.227-7.626-6.507-7.626-4.746 0-6.826 4.373-7.199 7.626h13.706zM369.931 73.452c0-3.04-.053-5.653-.213-8.053h4.106l.16 5.066h.213c1.174-3.467 4-5.653 7.146-5.653.533 0 .906.054 1.333.16v4.427a7.082 7.082 0 0 0-1.6-.16c-3.307 0-5.653 2.507-6.293 6.026-.106.64-.213 1.387-.213 2.187v13.759h-4.641V73.452z"/></g></svg>
<defs>
<style type="text/css">
 <![CDATA[
  .fil0 {fill:#EC1B23}
 ]]>
</style>
</defs>
<g id="Camada_x0020_1">
<metadata id="CorelCorpID_0Corel-Layer"/>
<g id="_563049382448">
 <path class="fil0" d="M54 82c-4,-10 -5,-10 -11,-18l-11 -17c-55,14 -33,52 24,51 51,0 78,-37 21,-51 -3,-10 1,-9 -11,-24 -10,-13 -7,-9 -10,-20l-2 -3c-16,31 30,41 12,64l-1 -4c0,-1 0,-1 -1,-3 -1,-4 -7,-12 -10,-15 -14,-15 -8,-18 -12,-22 -3,6 -5,9 -3,18 4,14 21,21 19,38 -1,4 -2,5 -4,6z"/>
 <path class="fil0" d="M449 83c-12,10 -23,2 -23,-13 -1,-16 11,-21 23,-13l0 26zm0 -32c-9,-2 -14,-4 -22,1 -24,15 -6,55 21,37 1,1 2,3 4,4 9,-4 14,-3 14,-8 -7,3 -8,-1 -8,-8l0 -59c-4,0 -13,4 -16,6 5,5 7,-2 7,11 0,5 0,11 0,16z"/>
 <path class="fil0" d="M135 91c14,3 28,4 37,-5 4,-4 6,-12 4,-19 -4,-11 -20,-14 -27,-20 -12,-8 -2,-26 14,-17 9,5 6,11 10,13 3,-3 2,-12 1,-16 -14,-3 -29,-5 -36,6 -4,5 -4,12 -1,18 3,6 7,7 13,10 6,3 12,5 15,9 5,6 3,12 -2,16 -4,4 -11,4 -17,1 -2,-1 -4,-3 -6,-5 -2,-4 -1,-6 -5,-8l0 17z"/>
 <path class="fil0" d="M376 59c8,-5 18,-8 18,6 2,31 -2,21 -6,27 3,1 19,1 22,0 -4,-7 -6,3 -6,-15 0,-5 0,-15 -1,-19 -4,-14 -19,-9 -26,-3 -2,-4 1,-3 -2,-6 -4,2 -12,4 -15,7l7 2 -1 31c-3,1 -4,0 -6,3 3,1 20,1 23,0 -7,-9 -7,9 -7,-33z"/>
 <path class="fil0" d="M246 88c-1,-5 -1,-17 -1,-24 0,-8 7,-10 14,-8 6,2 5,11 5,19 0,12 1,12 -4,15l-3 2c4,1 19,1 22,0 -2,-3 -4,-1 -6,-5 -1,-3 1,-21 -1,-28 -3,-13 -18,-12 -25,-4 0,0 -1,-1 -1,-1 0,0 0,0 0,-1l-1 -4c-4,1 -13,4 -16,7 3,2 5,0 7,4l-1 29c-3,1 -4,1 -6,3 3,1 20,1 23,0l-3 -2c-1,-1 -3,-1 -3,-2z"/>
 <path class="fil0" d="M209 84c-10,10 -26,-7 1,-13 0,4 1,10 -1,13zm11 2c-2,-9 2,-24 -3,-31 -4,-7 -14,-7 -22,-3 -10,7 -6,16 -2,13 5,-2 1,0 3,-6 2,-8 15,-9 14,7 -9,4 -22,6 -23,15 -2,14 15,14 22,8l4 4c0,-1 0,0 0,0l12 -4c3,-2 0,0 2,-3l-7 0z"/>
 <path class="fil0" d="M340 85c-2,1 -5,3 -9,2 -4,-1 -14,-11 10,-17l-1 15zm-20 -19c9,-2 5,-1 6,-7 2,-8 15,-10 14,6 -7,6 -22,6 -23,16 -2,16 15,12 23,8l3 4c4,-1 13,-4 15,-7 -2,-1 -4,0 -8,0 -2,-13 4,-30 -8,-36 -6,-3 -26,0 -22,16z"/>
 <path class="fil0" d="M481 64c2,-14 18,-15 22,0l-22 0zm29 19c-16,7 -29,7 -30,-15l31 0c1,-24 -35,-25 -40,-2 -7,34 40,31 39,17z"/>
 <path class="fil0" d="M279 54l9 0c1,9 -1,27 3,33 7,11 20,3 22,-3 -13,3 -19,4 -15,-30 6,0 11,2 14,-3 -3,-2 -8,-1 -15,-1l0 -14c-3,2 -5,8 -8,10 -3,3 -8,4 -10,8z"/>
 <path class="fil0" d="M533 88c-2,-11 -3,-43 15,-30 1,1 0,1 2,2l0 -10c-8,-2 -13,-1 -16,5l-1 -1c0,-1 0,-1 0,-1l-1 -4c-3,1 -5,2 -8,3l-6 3c0,0 -1,1 -1,1 2,1 3,0 5,2 3,2 2,28 2,28 -2,6 -3,1 -7,6 4,1 19,1 22,0 -1,-2 -3,-2 -6,-4z"/>
</g>
</g>
</svg>


    <svg viewBox="0 0 128 128" height="100%" width="100%" pointer-events="none" display="block" id="svg-5" >
        <path fill="#FFFF8D" d="M0 0h128v128H0z"/>
        <path fill="#C2C2C2" d="M51.7 31.4v-22s-19.6 2.5-15.8 29.9c11 0 14.8-4.3 15.8-7.9z"/>
        <path fill="#848484"
              d="M94.1 39.8c.1-1 0-2-.1-3 0-1-.1-1.9-.2-2.9-.2-1.8-.4-3.5-.8-5.2-.6-2.9-1.5-5.8-2.9-8.4-1.1-2.2-2.6-4.2-4.3-6-1.6-1.6-3.3-2.9-5.3-3.9-1.8-1-3.8-1.7-5.8-2.2-2-.5-4-.8-6-.9-1.9-.1-3.8-.1-5.7 0-1.7.1-3.3.3-5 .6-1.3.2-2.5.5-3.8.8l-2.2.6-.4.1v20.8c0 1-.1 1.8.4 2.7.2.3.5.6.6.9.3.9.7 1.8 1.2 2.7 1.1 1.8 2.7 3.4 4.7 4.3 2.4 1.1 5.1 1.4 7.8 1.6 4.8.3 9.6.4 14.3.3 2.2 0 4.3-.3 6.4-.9 1.2-.3 2.4-.6 3.6-1 .6-.2 1.2-.4 1.8-.5.6-.2 1.2-.5 1.7-.5z"/>
        <path fill="#FFE0B2"
              d="M66.8 116.8l17.9-8.7 3.1-8.2c-15.1-17 1.2-31.6 2.3-32.5h.1l13.2-11.1c1.5-1.2 2.5-3 2.8-5 .6-4.4-2.5-8.4-6.9-9.1-1.5-.2-3 0-4.3.6-.2-1-.5-1.9-.8-2.9-26.9 3.7-37.9-2.5-42.4-8.4-1.6 2.6-5.1 6.1-15.8 7.9-.2.9-.5 2-.8 3.1-1.2-.4-2.4-.6-3.8-.4-4.4.6-7.5 4.7-6.9 9.1.3 2 1.3 3.8 2.8 5l7.5 6.4c4.2 4.5 18.4 21.7 9 37l.7 3.7 4.7 4.6 17.6 8.9z"/>
        <path fill="#055524" d="M39.8 104.7zm54.3-.4l-.8 1.5-6.8 12.1V128H128v-2.3z"/>
        <path fill="#FFE0B2" d="M40.4 103.9c-.2.2-.3.4-.5.5 0 0-.1.1-.1.2v.1l.6-.8z"/>
        <circle fill="#444" cx="80" cy="51.7" r="2"/>
        <circle fill="#444" cx="54.3" cy="51.7" r="2"/>
        <path fill="#055524"
              d="M39.8 104.7c-3.2.9-6.1 2.7-8.6 5.5l-.2.2s-.5.6-1.5 1.7c-.9 1.1-2.2 2.6-3.7 4.5-2.3 2.9-5.1 6.7-8.3 11.4h31v-7.8l-8.7-15.5z"/>
        <path fill="#848484" d="M65.3 67.3s2.7 9.8 14.5 9.8c0 0 3.9-18.5-14.5-18.5v8.7z"/>
        <path fill="#C2C2C2" d="M65.3 67.3v-8.7C46.9 58.6 50.8 77 50.8 77c11.8 0 14.5-9.7 14.5-9.7z"/>
        <path fill="#A7FFEB" d="M80.9 128h5.6v-10.1zm-21 0h13.8l-6.9-10zm-11.5 0h4.3l-4.3-7.8z"/>
        <path fill="#1DE9B6"
              d="M66.8 118l-.5-.8.5-.4-22.9-17.3h-.1l-3.4 4.4-.6.8 8.6 15.5 4.3 7.8h7.2zm26.5-12.2l.8-1.5-6.4-4.4-20.9 16.9-.5.4.5.8 6.9 10h7.2l5.6-10.1z"/>
    </svg>
    <svg viewBox="0 0 128 128" height="100%" width="100%" pointer-events="none" display="block" id="svg-6" >
        <path fill="#FF8A80" d="M0 0h128v128H0z"/>
        <path fill="#F2A600"
              d="M30.3 43.7c3.1-.4 6.1 1 7.7 3.4 10.3-2 11-11.5 12.6-14.1 4.5 5.8 13.3 17.8 39.5 14.5 1.6-2.7 4.7-4.3 8-3.8.4 0 .7-1.9 1-1.8-.1-2.2-.3-4.4-.8-6.4v-.1C94.9 19.6 80.8 7.8 64 7.8c-15 0-27.8 9.4-32.8 22.6C29.8 34 29 38 28.9 42.1l.7 1.8.7-.2z"/>
        <path d="M89.1 102.8l.4-.3c-.1 0-.3.1-.4.3zm2.2-1.9l-.5.4c.2-.2.3-.3.5-.4zm-18 9.2c-.1 0-.2 0-.3.1.1-.1.2-.1.3-.1zm-2.4.4h-.2.2zm16.1-6.2l.3-.2-.3.2zm-9 4.5l.5-.2-.5.2zm4.9-2.1l.2-.1c-.1.1-.1.1-.2.1zm2-1.1l.5-.3-.5.3zm-4.6 2.3l.4-.2c-.1.1-.2.2-.4.2zm12.6-8.6zM30.3 41.7c-.3 0-.5.1-.7.1.2 0 .5 0 .7-.1zm35.9 69.2c-.6 0-1.2 0-1.9-.1.6 0 1.2.1 1.9.1z"
              fill="none"/>
        <path fill="#F2A600"
              d="M41.5 101.3l.8.7c-.3-.3-.5-.5-.8-.7zm1.4 1.1c.2.2.5.4.8.6-.3-.2-.6-.4-.8-.6zm1.3 1.1c.2.2.5.4.8.5-.2-.1-.5-.3-.8-.5zm54.1-68.1zM38.7 98.3c.4.4.8.8 1.1 1.3-.4-.4-.8-.8-1.1-1.3zm-7.6-67.9zm15.4 74.7l.5.3-.5-.3zm4.6 2.4l.3.1c-.1 0-.2 0-.3-.1zm-3.1-1.6l.5.3c-.2-.1-.4-.2-.5-.3zm13.6 4.6l-.9-.1.9.1zM88.9 67c-1.6 1.4-3.1 2.7-4.4 3.9-3.3 3.8-6.3 10.3-1 18.7 5.7-8.1 10.6-17.7 13.2-29.1L88.9 67zM41 100.8l-.8-.8.8.8zm8.5 6l.4.2c-.1-.1-.2-.2-.4-.2zm9.5 3.3h.1-.1zm-46.1 17.3c4.5-7.1 8.6-12.7 11.7-16.6 1.5-2 2.8-3.5 3.7-4.5 1-1.1 1.5-1.7 1.5-1.7l.2-.2c2.4-2.7 5.3-4.5 8.4-5.4.1-.2.2-.4.2-.5 0-.1 0-.2.1-.2 13.6-13.3 4.7-26.5-1.5-32.9l-4.4-3.8c-2.6 8.7-8.5 18.2-20.1 26.9-6.4 4.1-10.6 11.4-10.6 19.7 0 8.2 4.1 15.4 10.4 19.8l.4-.6z"/>
        <path fill="#FFE0B2"
              d="M67.1 110.9h-2 2zM38.8 98.1c-.4.3 2.1 5.6 2.5 5.9 1.8 1.8 4.1 2.2 6.3 3.5 4.8 2.7 10.2 3.6 15.6 4.2 5.7.6 11.5-.5 16.8-2.6 2.5-1 4.8-2.3 7-3.8 1.2-.8 2.2-1.6 3.3-2.6.4-.3 2.4-3.6 2.7-3.3-4-3.3-8-6.9-10.4-11.6-2.2-4.2-2.6-9.1-.5-13.4 1.7-3.3 4.5-5.6 7.3-7.9 2.2-1.8 4.3-3.6 6.5-5.5l4.7-3.9c1-.8 2.1-1.6 2.8-2.7 1.5-2 1.9-4.6 1.2-7-1.4-4.8-7.1-7.2-11.5-4.9-1 .5-1.9 1.3-2.6 2.2l-.5.7-1.1.1c-.8.1-1.6.2-2.4.2-2.6.2-5.3.3-7.9.1-6.8-.3-13.5-2.1-19.1-6-3.6-2.4-6.3-5.6-8.9-9-.5.9-.8 1.9-1.1 2.8-.5 1.4-1 2.7-1.6 4-1.7 3.3-4.5 5.8-8.2 6.9-.5.2-1.1.3-1.7.4-.3-.5-.7-.9-1.1-1.3-.9-.6-2.1-1.3-3.3-1.6-2.5-.7-5.2-.2-7.2 1.4-3.9 3.1-4 9.2-.1 12.5l10.5 8.9c2.4 2 4.3 4.8 5.9 7.4 2.1 3.5 3.4 7.6 3.2 11.7-.3 5.6-3.3 10.4-7.1 14.2-.1.1 13.6-13.3 0 0z"/>
        <path fill="#80DEEA"
              d="M93 99.4l-.2-.1-1.5 1.5-.5.4c-.4.4-.9.8-1.3 1.1l-.4.3c-.6.5-1.2.9-1.8 1.3l-.3.2c-.5.4-1.1.7-1.6 1l-.5.3-1.8 1-.2.1c-.7.4-1.4.7-2.1 1l-.4.2-1.8.7-.5.2c-.8.3-1.5.5-2.3.7l-2.4.6c-.1 0-.2 0-.3.1l-2.1.4h-.2c-1.5.2-3 .3-4.5.4h2-1.9c-.6 0-1.2 0-1.9-.1l-2.7-.3-.9-.1-1.6-.3h-.1c-2.7-.6-5.2-1.4-7.6-2.4l-.3-.1c-.4-.2-.8-.4-1.2-.5l-.4-.2c-.4-.2-.7-.4-1-.5l-.5-.3-1-.6-.5-.3c-.5-.3-1-.6-1.5-1-.3-.2-.5-.4-.8-.5l-.6-.5-.8-.6-.6-.5c-.3-.2-.5-.4-.8-.7l-.5-.5-.8-.8-.4-.4c-.4-.4-.8-.8-1.1-1.3-.1.2-.2.4-.2.5-3.1.9-6 2.7-8.4 5.4l-.2.2s-.5.6-1.5 1.7c-.9 1.1-2.2 2.6-3.7 4.5-3.1 3.9-7.2 9.5-11.7 16.6-.1.2-.2.4-.4.6H118c-2.7-5.4-5.1-9.8-7.1-13.1-1.3-2.2-2.3-3.9-3.1-5.1-.9-1.3-1.3-2-1.3-2l-.2-.3c-.6-.9-1.2-1.7-1.9-2.4-3.3-3.3-7.4-5.2-11.4-5.5z"/>
        <circle fill="#444" cx="78.9" cy="51.3" r="2"/>
        <circle fill="#444" cx="53.2" cy="51.3" r="2"/>
    </svg>
    <svg viewBox="0 0 128 128" height="100%" width="100%" pointer-events="none" display="block" id="svg-7"  >
        <path fill="#FFCC80" d="M41.6 123.8s0 .1-.1.1l.3-.4c-.1.2-.1.2-.2.3z"/>
        <path fill="#80D8FF" d="M0 0h128v128H0z"/>
        <path fill="#5D4037"
              d="M29.3 123.1c4.1-6.9 7.8-12.4 10.5-16.2 1.4-1.9 2.5-3.4 3.3-4.4l1.7-2s0-.1.1-.1l.3-.3C49 95.4 51.9 91 54.1 87c9.5-17.8 6.1-29.3-.3-35.9-1.6-1.6-3.2-2.9-4.7-4-.9-.6-1.7-1.1-2.4-1.6-1.8-1-3.1-1.6-3.3-1.7-1.3-1.2-2.2-2.9-2.5-4.9-.5-4.3 2.2-6.2 6.1-6.8 1-.1 2-.1 2.9.2 9.6-1.8 11.9-8 13.3-10.6 4 5.7 13.9 9.8 38 6.1C97.1 14.3 84.5 5.4 71 7.4c-4.4.7-8.3 2.4-11.8 4.9l-.1.1c-1.1.8-2.1 1.6-3 2.6l-35 30C12.9 49.8 7.3 58.8 7.3 69.1c0 2.7.4 5.3 1.1 7.8.3 4.9-.1 11.7-2.9 18.6-.2.5-.5 1-.7 1.6-1.2 3.2-1.9 6.6-1.9 10.2 0 8.2 3.5 15.6 9.1 20.7h14.5c1-1.7 1.9-3.4 2.8-4.9zm20.5-90.8z"/>
        <path fill="#FFCC80"
              d="M63.1 19.8c-1.4 2.6-5.7 8.8-15.3 10.6-.9-.3-1.9-.3-2.9-.2-3.9.6-6.7 4.5-6.1 8.8.3 2 1.2 3.7 2.5 4.9.2.1 1.5.6 3.3 1.7.7.4 1.6 1 2.4 1.6 1.5 1.1 3.1 2.4 4.7 4 6.4 6.6 11.8 18.1 2.3 35.9 0 0 7.3 15.5 23.2 16.9 6.1.5 13.3-5.6 22.1-8.8-.1-.7-.3-1.4-.5-2.1-.3-1.3-3.9-21.5-4.1-28.2-.2-7.4.7-11.9 1.9-14.8h8.8L103 39.7c-.2-2.4-.4-4.7-.7-6.7-.2-1.8-.6-3.5-1.1-5.2-24.2 3.7-34-2.3-38.1-8zm22.3 19.6c0-.9.7-1.6 1.6-1.6.9 0 1.6.7 1.6 1.6 0 .9-.7 1.6-1.6 1.6-.9 0-1.6-.7-1.6-1.6zm-35.6-7.1zm-4.9 68.1s0 .1-.1.1l.3-.4-.2.3z"/>
        <circle fill="#444" cx="86.9" cy="39.4" r="2"/>
        <path fill="#00BFA5"
              d="M77.2 98.5C61.3 97.2 54.1 87 54.1 87c-2.2 4-5.1 8.4-8.9 13.1l-.3.4c-.5.7-1.1 1.3-1.7 2-.8 1-2 2.5-3.3 4.4-2.8 3.8-6.5 9.2-10.5 16.2-.9 1.6-1.8 3.2-2.8 4.9h80.8l-.3-1c-2.6-10.3-5.4-21.4-7.7-31.9-8.8 3.1-16.1 3.9-22.2 3.4z"/>
    </svg>


        <svg xmlns="http://www.w3.org/2000/svg" width="2026" height="2500" viewBox="0 0 306.949 378.806"  id="svg-8"><g fill-rule="evenodd" clip-rule="evenodd"><path d="M0 0h306.064v303.923H179.477v-125.91H151.73v125.91h-14.74v-85.964h-13.871v85.964H0V0zm10.402 105.94c16.182-7.233 32.366-14.47 48.555-21.709 64.99-90.722 149.417-56.375 179.477-13.025C168.49 26.343 116.755 49.211 91.038 79.89c196.535-20.414 245.667 99.419 139.592 143.277 93.926-75.547-25.436-137.2-149.995-131.122-29.922 55.282-20.1 96.095 7.801 132.858C58.352 201.839 38.4 168.129 54.622 96.387c-14.741 3.187-29.482 6.37-44.22 9.553z" fill="#cc2229"/><path d="M48.053 336.536h11.612l.233 4.531c3.362-5.108 8.038-6.91 14.026-5.418-.461 4.252-.925 8.509-1.389 12.765-5.94-2.428-9.66.602-11.909 6.872l.045.838.003 21.744H48.053v-41.332zM4.039 322.627v54.853c6.858.027 13.72.059 20.582.09 21.558.563 21.527-22.287 9.251-28.41 11.482-6.043 8.749-26.487-9.083-26.498-6.92.093-13.837-.124-20.75-.035zm13.407 11.035h5.483c6.514.619 6.205 10.151 0 10.571h-5.483v-10.571zm0 21.559h5.923c7.037.674 6.704 11.042 0 11.499h-5.923v-11.499zM141.789 321.139h12.623v56.52h-11.74v-5.421c-13.098 13.503-26.832 2.698-27.271-16.075.701-17.24 12.379-26.831 26.388-15.931v-19.093zm-6.755 25.666c3.582 0 6.501 4.6 6.501 10.244 0 5.642-2.919 10.241-6.501 10.241s-6.501-4.6-6.501-10.241c0-5.645 2.919-10.244 6.501-10.244zM79.116 338.723c.058 3.301.121 6.604.186 9.911 8.316-4.668 18.388-5.436 18.416 2.843-13.555-1.104-22.603 2.393-22.465 14.572.117 10.465 12.476 16.43 23.016 7.546.058 1.345.12 2.692.182 4.04 3.816.027 7.636.058 11.455.089.365-12.757.378-22.912-.663-30.06-3.526-11.918-12.784-15.521-30.127-8.941zm18.601 20.922c-.22 4.318-1.337 7.134-3.603 8.172-4.136 1.888-8.997-1.812-5.841-5.831 1.393-1.778 4.559-2.854 9.444-2.341z"/><path d="M172.467 361.601c7.824.083 15.652.165 23.483.251 2.146-15.047-5.934-26.298-17.044-26.553-23.246-1.809-26.928 41.937-.127 43.497 4.878-.017 9.756-.715 14.645-2.402-.128-3.837-.255-7.673-.379-11.506-13.492 8.226-19.688 1.828-20.578-3.287zm-.251-9.231l12.497.252c-.3-10.355-11.937-9.382-12.497-.252zM225.999 348.957c.461-3.792.925-7.587 1.39-11.382-16.615-5.772-27.158 1.303-27.526 10.622-.127 15.05 18.437 10.997 16.666 18.333-3.465 3.961-9.271 1.389-15.149-1.771-.375 3.875-.754 7.753-1.135 11.634 15.789 4.345 26.725 2.641 29.035-9.863 1.506-16.759-17.075-12.898-16.918-19.093.13-3.156 7.707-3.665 13.637 1.52zM261.855 349.08c.25-3.791.501-7.583.756-11.378-13.864-6.026-30.19.588-30.173 19.726.519 18.109 15.597 25.26 30.678 19.344-.172-4.005-.34-8.01-.505-12.012-8.791 6.985-16.742 1.255-17.045-7.714-.247-7.46 4.927-14.669 16.289-7.966zM287.61 335.554c-12.39.412-20.173 6.28-20.451 21.874.072 10.412 5.201 21.481 20.324 21.241 9.13.671 20.031-6.112 19.443-21.496-.477-10.592-4.64-21.118-19.316-21.619zm-.567 10.367c3.72 0 6.752 4.913 6.752 10.939 0 6.022-3.032 10.936-6.752 10.936-3.727 0-6.759-4.913-6.759-10.936 0-6.026 3.032-10.939 6.759-10.939z"/></g></svg>


      <svg xmlns="http://www.w3.org/2000/svg" width="2500" height="2500" viewBox="0 0 192.744 192.744" id="svg-0">
        <g fill-rule="evenodd" clip-rule="evenodd"><path fill="#fff" d="M0 0h192.744v192.744H0V0z"/><path fill="#db812e" d="M9.432 8.496v175.752h173.88V8.496H9.432z"/><path d="M49.113 25.596h94.518c6.578 0 12.074 2.342 16.58 6.848 4.684 4.595 7.027 10.182 7.027 16.759v94.428c0 6.488-2.344 12.074-7.027 16.67-4.506 4.504-10.002 6.848-16.58 6.848H49.113c-6.578 0-12.164-2.344-16.759-6.848-4.506-4.596-6.848-10.182-6.848-16.67V49.203c0-6.577 2.342-12.164 6.848-16.759 4.595-4.506 10.181-6.848 16.759-6.848z" fill="#33348e"/><path d="M133.721 105.879h7.658l9.461-9.553h-10.363l-6.756 9.553zm-2.795 2.432h-10.992v20.453c0 5.496 1.441 9.551 4.055 12.254 2.434 2.344 5.496 3.424 9.461 3.424 5.496 0 9.551-2.162 12.074-6.396h.09v5.586h9.73v-35.32h-10.992v20.635c0 .9-.09 1.711-.27 2.162-1.262 2.973-3.424 4.594-6.758 4.594-4.234 0-6.398-2.973-6.398-8.83v-18.562zm-28.201 11.712c-7.208 0-12.705 1.082-16.489 3.424-3.875 2.344-5.947 5.857-5.947 10.363 0 2.793 1.171 5.314 3.154 7.387 2.342 2.164 5.316 3.244 8.92 3.244 4.866 0 8.47-1.531 10.993-4.504h.27v3.693h10.092v-20.814c0-4.684-1.262-8.289-3.604-10.902-2.885-2.973-7.119-4.594-12.705-4.594-5.767 0-10.632 1.08-14.417 3.424l2.072 6.938c3.063-1.893 6.578-2.793 10.452-2.793 4.865 0 7.208 1.531 7.208 4.775v.359h.001zm-26.762-11.712h-6.758V96.326H58.574v11.984h-5.046v8.109h5.046v14.236c0 4.865.901 8.469 2.974 10.541 1.982 2.164 4.955 3.244 8.56 3.244 2.343 0 4.235-.27 5.947-.9l-.09-8.289c-.36.27-.991.449-2.072.449-1.712 0-2.974-.631-3.784-1.891-.631-.902-.901-2.523-.901-4.865V116.42h6.758v-8.109h-.003zm14.507 24.597c0-4.234 4.235-6.127 12.524-6.037v3.785l-.09 2.072c-.451 1.352-1.441 2.523-2.703 3.244-1.262 1.08-2.793 1.621-4.505 1.621-3.424.001-5.226-1.62-5.226-4.685zM37.219 96.326v47.305h11.173V96.326H37.219z" fill="#fff22d"/></g></svg>

    <svg viewBox="0 0 128 128" height="100%" width="100%" pointer-events="none" display="block" id="svg-9"  >
        <path fill="#FFCC80" d="M41.6 123.8s0 .1-.1.1l.3-.4c-.1.2-.1.2-.2.3z"/>
        <path fill="#FFFF8D" d="M0 0h128v128H0z"/>
        <path fill="#C2C2C2"
              d="M83.2 26.6c.1-.9.2-1.8.2-2.7C83.4 13.5 75 5 64.6 5s-18.8 8.4-18.8 18.8c0 1.4.2 2.7.4 4 5.4-4 12.2-6.4 19.4-6.4 6.5.1 12.5 2 17.6 5.2z"/>
        <path fill="#848484"
              d="M41.4 58.4c9.6-1.9 10.3-10.7 11.7-13.2 4.2 5.4 12.4 16.6 36.8 13.5 1.5-2.5 4.4-6 7.4-5.6.3 0 .6.1 1 .2C98 42 92 32.1 83.1 26.5 78 23.3 72 21.4 65.6 21.4c-7.3 0-14 2.4-19.4 6.4-7.9 5.9-13.1 15.2-13.3 25.7.4-.1.9 1.7 1.4 1.7 2.8-.4 5.6 1 7.1 3.2z"/>
        <path fill="#FF5722"
              d="M109.6 121.5c-1.2-2-2.2-3.6-2.9-4.8l-1.2-1.8-.2-.3c-.5-.8-1.1-1.6-1.8-2.3-3.1-3.3-6.9-5.1-10.8-5.3 0 0 .1 0 .1.1l-.2-.1c-3.4 3.7-7.8 6.6-12.7 8.5V128h33.4c-1.4-2.5-2.6-4.7-3.7-6.5zM42 106l-.2.5c-2.9.8-5.6 2.5-7.8 5.1l-.2.2s-.5.6-1.4 1.6c-.9 1-2 2.4-3.5 4.2-2.1 2.6-4.7 6.1-7.5 10.4h28v-15.7c-2.8-1.7-5.3-3.8-7.4-6.3z"/>
        <path fill="#E0F7FA" d="M67.7 117.7c-6.8-.2-13.1-2.1-18.3-5.4V128h30.5v-12.6c-3.8 1.4-7.9 2.2-12.2 2.3z"/>
        <path fill="#FFE0B2"
              d="M42 106c2.1 2.4 4.6 4.5 7.4 6.3 5.2 3.3 11.5 5.3 18.3 5.4 4.3-.1 8.4-.9 12.1-2.3 5-1.9 9.3-4.8 12.7-8.5l.2.1s-.1 0-.1-.1c-15.7-12.3-12-21.7-7.8-26.6 1.3-1.1 2.6-2.3 4.1-3.6l12.2-10.3c1.4-1.2 2.4-2.8 2.7-4.8.5-3.8-1.9-7.3-5.4-8.2-.3-.1-.6-.2-1-.2-3.1-.4-5.9 1.1-7.4 3.6-24.4 3.1-32.7-8.1-36.8-13.5-1.5 2.4-2.1 11.3-11.7 13.2-1.6-2.3-4.3-3.6-7.2-3.2l-1.4.3c-3.4 1.1-5.5 4.5-5 8.1.3 1.9 1.3 3.6 2.6 4.7l10.2 8.7c5.8 6 14.1 18.3 1.4 30.7-.1.1-.1.2-.1.2zm37.6-45.3c.8 0 1.5.7 1.5 1.5s-.7 1.5-1.5 1.5-1.5-.7-1.5-1.5c-.1-.9.6-1.5 1.5-1.5zm-24 0c.8 0 1.5.7 1.5 1.5s-.7 1.5-1.5 1.5-1.5-.7-1.5-1.5c-.1-.9.6-1.5 1.5-1.5z"/>
        <circle fill="#444" cx="79.6" cy="62.2" r="2"/>
        <circle fill="#444" cx="55.6" cy="62.2" r="2"/>
    </svg>
    </defs>
</svg>
